<svg width="80px" height="58px" viewBox="0 0 80 58" fill="none" xmlns="http://www.w3.org/2000/svg" transform="rotate(0) scale(1, 1)">
<circle cx="2.32954" cy="2.32954" r="2.32954" fill="#58c4c2"/>
<circle cx="12.9858" cy="2.32954" r="2.32954" fill="#58c4c2"/>
<circle cx="23.6499" cy="2.32954" r="2.32954" fill="#58c4c2"/>
<circle cx="34.3061" cy="2.32954" r="2.32954" fill="#58c4c2"/>
<circle cx="44.9702" cy="2.32954" r="2.32954" fill="#58c4c2"/>
<circle cx="55.6264" cy="2.32954" r="2.32954" fill="#58c4c2"/>
<circle cx="66.2827" cy="2.32954" r="2.32954" fill="#58c4c2"/>
<circle cx="76.9467" cy="2.32954" r="2.32954" fill="#58c4c2"/>
<circle cx="2.32954" cy="12.9858" r="2.32954" fill="#58c4c2"/>
<circle cx="12.9858" cy="12.9858" r="2.32954" fill="#58c4c2"/>
<circle cx="23.6499" cy="12.9858" r="2.32954" fill="#58c4c2"/>
<circle cx="34.3061" cy="12.9858" r="2.32954" fill="#58c4c2"/>
<circle cx="44.9702" cy="12.9858" r="2.32954" fill="#58c4c2"/>
<circle cx="55.6264" cy="12.9858" r="2.32954" fill="#58c4c2"/>
<circle cx="66.2827" cy="12.9858" r="2.32954" fill="#58c4c2"/>
<circle cx="76.9467" cy="12.9858" r="2.32954" fill="#58c4c2"/>
<circle cx="2.32954" cy="23.6499" r="2.32954" fill="#58c4c2"/>
<circle cx="12.9858" cy="23.6499" r="2.32954" fill="#58c4c2"/>
<circle cx="23.6499" cy="23.6499" r="2.32954" fill="#58c4c2"/>
<circle cx="34.3061" cy="23.6499" r="2.32954" fill="#58c4c2"/>
<circle cx="44.9702" cy="23.6499" r="2.32954" fill="#58c4c2"/>
<circle cx="55.6264" cy="23.6499" r="2.32954" fill="#58c4c2"/>
<circle cx="66.2827" cy="23.6499" r="2.32954" fill="#58c4c2"/>
<circle cx="76.9467" cy="23.6499" r="2.32954" fill="#58c4c2"/>
<circle cx="2.32954" cy="34.3061" r="2.32954" fill="#58c4c2"/>
<circle cx="12.9858" cy="34.3061" r="2.32954" fill="#58c4c2"/>
<circle cx="23.6499" cy="34.3061" r="2.32954" fill="#58c4c2"/>
<circle cx="34.3061" cy="34.3061" r="2.32954" fill="#58c4c2"/>
<circle cx="44.9702" cy="34.3061" r="2.32954" fill="#58c4c2"/>
<circle cx="55.6264" cy="34.3061" r="2.32954" fill="#58c4c2"/>
<circle cx="66.2827" cy="34.3061" r="2.32954" fill="#58c4c2"/>
<circle cx="76.9467" cy="34.3061" r="2.32954" fill="#58c4c2"/>
<circle cx="2.32954" cy="44.9624" r="2.32954" fill="#58c4c2"/>
<circle cx="12.9858" cy="44.9624" r="2.32954" fill="#58c4c2"/>
<circle cx="23.6499" cy="44.9624" r="2.32954" fill="#58c4c2"/>
<circle cx="34.3061" cy="44.9624" r="2.32954" fill="#58c4c2"/>
<circle cx="44.9702" cy="44.9624" r="2.32954" fill="#58c4c2"/>
<circle cx="55.6264" cy="44.9624" r="2.32954" fill="#58c4c2"/>
<circle cx="66.2827" cy="44.9624" r="2.32954" fill="#58c4c2"/>
<circle cx="76.9467" cy="44.9624" r="2.32954" fill="#58c4c2"/>
<circle cx="2.32954" cy="55.6264" r="2.32954" fill="#58c4c2"/>
<circle cx="12.9858" cy="55.6264" r="2.32954" fill="#58c4c2"/>
<circle cx="23.6499" cy="55.6264" r="2.32954" fill="#58c4c2"/>
<circle cx="34.3061" cy="55.6264" r="2.32954" fill="#58c4c2"/>
<circle cx="44.9702" cy="55.6264" r="2.32954" fill="#58c4c2"/>
<circle cx="55.6264" cy="55.6264" r="2.32954" fill="#58c4c2"/>
<circle cx="66.2827" cy="55.6264" r="2.32954" fill="#58c4c2"/>
<circle cx="76.9467" cy="55.6264" r="2.32954" fill="#58c4c2"/>
</svg>