<svg width="15" height="17" viewBox="0 0 15 17" fill="none" xmlns="http://www.w3.org/2000/svg">
<path fill-rule="evenodd" clip-rule="evenodd" d="M13.9879 8.00328L1.44583 0.761955C1.33112 0.695183 1.20085 0.65978 1.06812 0.659302H1.06593C0.933135 0.659829 0.802806 0.695251 0.688009 0.762017C0.572402 0.827948 0.476421 0.923454 0.409918 1.03873C0.343415 1.15401 0.308785 1.28491 0.309584 1.418V15.9005C0.309059 16.0337 0.343729 16.1646 0.410084 16.2801C0.47644 16.3956 0.572125 16.4914 0.687451 16.558C0.802778 16.6246 0.933651 16.6596 1.06682 16.6593C1.19999 16.659 1.33073 16.6236 1.4458 16.5566L13.9879 9.31521C14.103 9.24874 14.1987 9.15312 14.2652 9.03798C14.3316 8.92283 14.3666 8.79221 14.3666 8.65925C14.3666 8.52629 14.3316 8.39567 14.2652 8.28052C14.1987 8.16537 14.103 8.06976 13.9879 8.00328Z" fill="white"/>
</svg>
