<svg width="15" height="14" viewBox="0 0 15 14" fill="none" xmlns="http://www.w3.org/2000/svg">
<g clip-path="url(#clip0_97_9078)">
<path d="M2.42227 0.125244C1.51951 0.125244 0.785156 0.859648 0.785156 1.76235C0.785156 2.66506 1.51921 3.39942 2.42227 3.39942C3.32533 3.39942 4.05938 2.66506 4.05938 1.76235C4.05938 0.859648 3.32497 0.125244 2.42227 0.125244Z" fill="white"/>
<path d="M7.72109 0.125244C6.81839 0.125244 6.08398 0.859648 6.08398 1.76235C6.08398 2.66506 6.81839 3.39942 7.72109 3.39942C8.62385 3.39942 9.35836 2.66506 9.35836 1.76235C9.35836 0.859648 8.62416 0.125244 7.72109 0.125244Z" fill="white"/>
<path d="M13.1049 3.39947C14.0074 3.39947 14.742 2.66511 14.742 1.76241C14.742 0.859698 14.008 0.125244 13.1049 0.125244C12.2017 0.125244 11.4678 0.859648 11.4678 1.76236C11.4678 2.66506 12.2023 3.39947 13.1049 3.39947Z" fill="white"/>
<path d="M2.3796 8.6453C3.28231 8.6453 4.01687 7.91109 4.01687 7.00824C4.01687 6.10532 3.28231 5.37097 2.3796 5.37097C1.4769 5.37097 0.742188 6.10538 0.742188 7.00824C0.742188 7.91109 1.4769 8.6453 2.3796 8.6453Z" fill="white"/>
<path d="M7.67813 8.6453C8.58068 8.6453 9.31524 7.91109 9.31524 7.00824C9.31524 6.10532 8.58129 5.37097 7.67813 5.37097C6.77511 5.37097 6.04102 6.10532 6.04102 7.00824C6.04102 7.91109 6.77542 8.6453 7.67813 8.6453Z" fill="white"/>
<path d="M13.0625 8.6453C13.9654 8.6453 14.6996 7.91109 14.6996 7.00824C14.6996 6.10532 13.9654 5.37097 13.0625 5.37097C12.1596 5.37097 11.4248 6.10532 11.4248 7.00824C11.4248 7.91109 12.1594 8.6453 13.0625 8.6453Z" fill="white"/>
<path d="M2.41671 10.6005C1.514 10.6005 0.779297 11.3347 0.779297 12.2376C0.779297 13.1401 1.514 13.8746 2.41671 13.8746C3.31942 13.8746 4.05377 13.1405 4.05377 12.2376C4.05377 11.3347 3.31942 10.6005 2.41671 10.6005Z" fill="white"/>
<path d="M7.71554 10.6005C6.81278 10.6005 6.07812 11.3347 6.07812 12.2376C6.07812 13.1401 6.81253 13.8746 7.71554 13.8746C8.6181 13.8746 9.3526 13.1405 9.3526 12.2376C9.3526 11.3347 8.6181 10.6005 7.71554 10.6005Z" fill="white"/>
<path d="M13.1 10.6005C12.1974 10.6005 11.4629 11.3347 11.4629 12.2376C11.4629 13.1401 12.1974 13.8746 13.1 13.8746C14.0029 13.8746 14.7371 13.1405 14.7371 12.2376C14.7371 11.3347 14.0026 10.6005 13.1 10.6005Z" fill="white"/>
</g>
<defs>
<clipPath id="clip0_97_9078">
<rect width="14" height="14" fill="white" transform="translate(0.742188)"/>
</clipPath>
</defs>
</svg>
