<svg version="1.2" xmlns="http://www.w3.org/2000/svg" viewBox="0 0 31 31" width="31" height="31"><style>.a{fill:#58c4c2}</style><path class="a" d="m25.4 24.1h-20.5c-0.6 0-1.3-0.3-1.8-0.7-0.4-0.5-0.7-1.1-0.7-1.8v-12.7c0-0.6 0.3-1.3 0.7-1.7 0.5-0.5 1.2-0.8 1.8-0.8h20.5c0.7 0 1.3 0.3 1.8 0.8 0.5 0.4 0.7 1.1 0.7 1.7v12.7c0 0.7-0.2 1.3-0.7 1.8-0.5 0.4-1.1 0.7-1.8 0.7zm-20.5-16.7c-0.4 0-0.8 0.1-1.1 0.4-0.3 0.3-0.4 0.7-0.4 1.1v12.7c0 0.4 0.1 0.8 0.4 1.1 0.3 0.3 0.7 0.4 1.1 0.4h20.5c0.4 0 0.8-0.1 1.1-0.4 0.3-0.3 0.5-0.7 0.5-1.1v-12.7c0-0.4-0.2-0.8-0.5-1.1-0.3-0.3-0.7-0.4-1.1-0.4z"/><path class="a" d="m15.2 18.1q-0.2 0-0.4-0.1l-11.5-10.2 0.6-0.8 11.3 10 11.2-10 0.7 0.8-11.6 10.2q-0.2 0.1-0.3 0.1z"/><path class="a" d="m3 22.6l7.8-8.9 0.7 0.7-7.8 8.8z"/><path class="a" d="m18.8 14.4l0.8-0.7 7.7 8.9-0.7 0.6z"/></svg>