<svg version="1.2" xmlns="http://www.w3.org/2000/svg" viewBox="0 0 50 51" width="50" height="51"><style>.a{fill:#fff}.b{fill:#58c4c2}</style><path class="a" d="m1.5 45.7c0.3 0.2 0.6 0 0.8-0.2 1-1.3 2.4-2 4.1-2 1.6 0 3 0.7 4 2 0.2 0.3 0.6 0.4 0.9 0.2 0.3-0.1 0.5-0.3 0.5-0.7 0-7 0-30.3 0-37.4q0-0.2-0.2-0.4c-1.2-1.7-3.2-2.6-5.2-2.6q0 0 0 0c-2.1 0-4.1 0.9-5.3 2.6q-0.2 0.2-0.2 0.4v37.4c0 0.4 0.2 0.6 0.6 0.7zm0.9-11.9v-7.2c2.1-2.4 5.8-2.4 7.9 0v7.2c-2.3-1.7-5.5-1.7-7.9 0zm7.9-9.3c-2.3-1.7-5.5-1.7-7.9 0v-7.2c2.1-2.4 5.8-2.5 7.9 0zm-3.9 17.5q0 0 0 0c-1.5 0-2.8 0.4-4 1.2v-7.2c2.1-2.5 5.8-2.5 7.9 0v7.2c-1.2-0.8-2.5-1.2-3.9-1.2zm0-35.9q0 0 0 0c1.5 0 2.9 0.6 3.9 1.8v7.3c-2.3-1.7-5.5-1.8-7.9 0v-7.3c1-1.2 2.4-1.8 4-1.8z"/><path class="b" d="m36.3 6.5c0.4 0.1 0.8 0 1-0.4 0.2-0.4 0-0.9-0.4-1-2.5-1.1-5.4-0.5-7.2 1.4-1.3-1.2-2.9-1.9-4.7-1.9q0 0 0 0c-1.8 0-3.4 0.7-4.7 1.9-1.8-1.9-4.7-2.5-7.2-1.4-0.4 0.2-0.6 0.6-0.4 1 0.1 0.4 0.6 0.5 1 0.4 2.1-0.9 4.5-0.3 5.9 1.4v7.3c-1.6-1.2-3.8-1.6-5.8-1-0.4 0.1-0.6 0.6-0.5 1 0.1 0.4 0.5 0.6 0.9 0.5 2-0.6 4.1 0 5.4 1.6v7.2c-1.6-1.2-3.8-1.6-5.8-1-0.4 0.1-0.6 0.5-0.5 0.9 0.1 0.4 0.5 0.6 0.9 0.5 2-0.6 4.1 0.1 5.4 1.7v7.3c-1.6-1.2-3.8-1.6-5.8-1-0.4 0.1-0.6 0.5-0.5 0.9 0.1 0.4 0.5 0.6 0.9 0.5 2-0.6 4.1 0.1 5.4 1.7v7.2c-1.6-1.2-3.8-1.6-5.8-1-0.4 0.1-0.6 0.6-0.5 1 0.1 0.4 0.5 0.6 0.9 0.5 2.1-0.6 4.3 0.1 5.5 1.8q0 0 0.1 0c0.3 0.4 0.9 0.4 1.1 0 1-1.3 2.5-2 4.1-2 1.6 0 3.1 0.7 4 2q0 0 0.1 0 0 0 0 0 0 0 0 0c0.3 0.4 0.9 0.3 1.2 0 1.3-1.7 3.4-2.4 5.5-1.8 0.4 0.1 0.8-0.2 0.9-0.6 0.1-0.4-0.1-0.8-0.5-0.9-2-0.6-4.2-0.2-5.8 1v-7.2c1.3-1.6 3.4-2.2 5.4-1.7 0.4 0.1 0.8-0.1 0.9-0.5 0.1-0.4-0.1-0.8-0.5-0.9-2-0.6-4.2-0.2-5.8 1v-7.2c1.3-1.6 3.4-2.3 5.4-1.7 0.4 0.1 0.8-0.1 0.9-0.5 0.1-0.4-0.1-0.8-0.5-0.9-2-0.6-4.2-0.2-5.8 1v-7.3c1.3-1.6 3.4-2.2 5.4-1.6 0.4 0.1 0.8-0.1 0.9-0.5q0-0.2 0-0.4c0-0.3-0.2-0.6-0.5-0.7-2-0.6-4.2-0.1-5.8 1.1v-7.3c1.5-1.7 3.8-2.3 5.9-1.4zm-15.2 10.8c2-2.4 5.8-2.5 7.8 0v7.2c-2.3-1.7-5.5-1.7-7.8 0zm0 9.3c2-2.4 5.8-2.4 7.8 0v7.2c-2.3-1.7-5.5-1.7-7.8 0zm3.9-20.6q0 0 0 0c1.5 0 2.9 0.7 3.9 1.9v7.3c-2.3-1.8-5.5-1.8-7.8 0v-7.3c1-1.2 2.4-1.9 3.9-1.9zm0 35.9q0 0 0 0c-1.4 0-2.8 0.5-3.9 1.3v-7.2c2-2.5 5.8-2.5 7.8 0v7.2c-1.1-0.8-2.5-1.3-3.9-1.3z"/><path class="b" d="m43.7 4.6q0 0 0 0c-2.1 0-4.1 0.9-5.3 2.6q-0.2 0.2-0.2 0.4v37.4c0 0.4 0.2 0.6 0.5 0.7 0.4 0.2 0.7 0 0.9-0.2 1-1.3 2.4-2 4.1-2 1.6 0 3 0.7 4 2 0.2 0.2 0.4 0.3 0.6 0.3q0.1 0 0.2-0.1c0.4-0.1 0.6-0.3 0.6-0.7q0-18.7 0-37.4 0-0.2-0.2-0.4c-1.2-1.7-3.2-2.6-5.2-2.6zm3.9 19.9c-2.3-1.7-5.5-1.7-7.9 0v-7.2c2.1-2.4 5.8-2.5 7.9 0zm-7.9 9.3v-7.1c2.1-2.5 5.8-2.5 7.9 0v7.1c-2.3-1.7-5.5-1.7-7.9 0zm4-27.7q0 0 0 0c1.5 0 2.9 0.6 3.9 1.8v7.3c-2.3-1.7-5.5-1.8-7.9 0v-7.3c1-1.2 2.4-1.8 4-1.8zm0 35.9q0 0 0 0c-1.5 0-2.8 0.4-4 1.2v-7.2c2.1-2.5 5.8-2.5 7.9 0v7.2c-1.2-0.8-2.5-1.2-3.9-1.2z"/></svg>