<svg version="1.2" xmlns="http://www.w3.org/2000/svg" viewBox="0 0 50 51" width="50" height="51"><style>.a{fill:#58c4c2}.b{fill:#fff}</style><path class="a" d="m46.4 22.6l1.8-2.6q0.2-0.2 0.2-0.6c-0.1-0.2-0.2-0.4-0.4-0.5l-2.9-1.4 1.2-2.9c0.1-0.2 0.1-0.4 0-0.6q-0.2-0.3-0.5-0.4l-3.1-0.7 0.5-3.1c0-0.2 0-0.4-0.2-0.6q-0.2-0.2-0.6-0.2l-3.1 0.1-0.3-3.2c0-0.2-0.1-0.4-0.3-0.5q-0.3-0.2-0.7-0.1l-3 0.8-1-3c-0.1-0.2-0.3-0.4-0.5-0.4q-0.3-0.2-0.6 0l-2.7 1.6-1.8-2.7c-0.1-0.2-0.3-0.3-0.5-0.3-0.2 0-0.4 0-0.6 0.2l-2.3 2.1-2.3-2.1q-0.3-0.3-0.6-0.2c-0.2 0-0.4 0.1-0.5 0.3l-1.8 2.7-2.7-1.6q-0.3-0.2-0.6 0c-0.2 0-0.4 0.2-0.5 0.4l-1 3-3-0.8q-0.4-0.1-0.7 0.1c-0.2 0.1-0.3 0.3-0.3 0.5l-0.3 3.2-3.1-0.1c-0.2 0-0.5 0-0.6 0.2-0.2 0.2-0.2 0.4-0.2 0.6l0.5 3.1-3.1 0.7q-0.3 0.1-0.5 0.4c-0.1 0.2-0.1 0.4 0 0.6l1.2 2.9-2.9 1.4c-0.2 0.1-0.3 0.3-0.4 0.5 0 0.2 0 0.5 0.2 0.6l1.8 2.6-2.4 2c-0.2 0.1-0.3 0.3-0.3 0.6 0 0.2 0.1 0.4 0.3 0.5l2.4 2.1-1.8 2.5c-0.2 0.2-0.2 0.4-0.2 0.6 0.1 0.2 0.2 0.4 0.4 0.5l2.9 1.4-1.2 2.9c-0.1 0.2-0.1 0.5 0 0.7 0.1 0.1 0.3 0.3 0.5 0.3l3.1 0.7-0.5 3.1c0 0.2 0 0.5 0.2 0.6 0.1 0.2 0.4 0.3 0.6 0.3l3.1-0.1 0.3 3.1c0 0.2 0.1 0.4 0.3 0.6q0.3 0.2 0.7 0.1l3-0.9 1 3c0.1 0.2 0.3 0.4 0.5 0.5 0.2 0 0.4 0 0.6-0.1l2.8-1.5 1.7 2.6c0.1 0.2 0.3 0.3 0.5 0.4 0.2 0 0.4-0.1 0.6-0.2l2.3-2.2 2.3 2.2q0.2 0.2 0.5 0.2c0.3 0 0.5-0.2 0.6-0.4l1.8-2.6 2.7 1.5c0.2 0.1 0.4 0.1 0.6 0.1 0.2-0.1 0.4-0.3 0.5-0.5l1-3 3 0.9c0.3 0 0.5 0 0.7-0.1 0.2-0.2 0.3-0.4 0.3-0.6l0.3-3.1 3.1 0.1c0.2 0 0.5-0.1 0.6-0.3 0.2-0.1 0.2-0.4 0.2-0.6l-0.5-3.1 3.1-0.7c0.2 0 0.4-0.2 0.5-0.3q0.2-0.4 0-0.7l-1.2-2.9 2.9-1.4c0.2-0.1 0.3-0.3 0.4-0.5 0-0.2 0-0.4-0.2-0.6l-1.8-2.5 2.4-2.1c0.2-0.1 0.3-0.3 0.3-0.5 0-0.3-0.1-0.5-0.3-0.6zm-1.5 4.5c-0.3 0.2-0.4 0.7-0.1 1l1.7 2.4-2.6 1.3c-0.4 0.2-0.6 0.6-0.4 0.9l1.1 2.8-2.9 0.6c-0.4 0.1-0.6 0.4-0.6 0.8l0.5 3-3-0.1c-0.3-0.1-0.7 0.3-0.7 0.7l-0.3 2.9-2.8-0.8c-0.4-0.1-0.8 0.1-1 0.5l-0.9 2.8-2.6-1.5c-0.3-0.2-0.8-0.1-1 0.3l-1.6 2.5-2.2-2.1q-0.2-0.2-0.5-0.2-0.3 0-0.5 0.2l-2.1 2.1-1.6-2.5c-0.3-0.4-0.7-0.5-1-0.3l-2.6 1.5-1-2.8c-0.1-0.4-0.5-0.6-0.9-0.5l-2.8 0.8-0.3-2.9c0-0.4-0.4-0.7-0.8-0.7l-2.9 0.1 0.4-3c0.1-0.4-0.2-0.7-0.6-0.8l-2.9-0.6 1.2-2.8c0.1-0.3 0-0.7-0.4-0.9l-2.7-1.3 1.8-2.4c0.2-0.3 0.2-0.8-0.1-1l-2.3-1.9 2.3-1.9c0.3-0.3 0.3-0.7 0.1-1l-1.8-2.4 2.7-1.3c0.4-0.2 0.5-0.6 0.4-1l-1.2-2.7 2.9-0.6c0.4-0.1 0.7-0.5 0.6-0.9l-0.4-2.9 2.9 0.1c0.4 0 0.8-0.3 0.8-0.7l0.3-2.9 2.8 0.8c0.4 0.1 0.8-0.1 0.9-0.5l1-2.8 2.6 1.4c0.3 0.2 0.7 0.1 1-0.2l1.6-2.5 2.1 2c0.3 0.3 0.8 0.3 1 0l2.2-2 1.6 2.5c0.2 0.3 0.7 0.4 1 0.2l2.6-1.4 0.9 2.8c0.2 0.4 0.6 0.6 1 0.5l2.8-0.8 0.3 2.9c0 0.4 0.3 0.7 0.7 0.7l3-0.1-0.5 2.9c0 0.4 0.2 0.8 0.6 0.9l2.9 0.6-1.1 2.7c-0.2 0.4 0 0.8 0.4 1l2.6 1.3-1.7 2.4c-0.3 0.3-0.2 0.7 0.1 1l2.3 1.9z"/><path class="b" d="m25 18.2c-3.9 0-7 3.1-7 7 0 3.8 3.1 7 7 7 3.9 0 7-3.2 7-7 0-3.9-3.1-7-7-7zm0 12.4c-3 0-5.5-2.4-5.5-5.4 0-3.1 2.5-5.5 5.5-5.5 3 0 5.5 2.4 5.5 5.5 0 3-2.5 5.4-5.5 5.4z"/><path class="a" d="m25 15.7c1.4 0 2.5-1.1 2.5-2.4 0-1.4-1.1-2.5-2.5-2.5-1.4 0-2.5 1.1-2.5 2.5 0 1.3 1.1 2.4 2.5 2.4zm0-3.4c0.5 0 1 0.4 1 1 0 0.5-0.5 0.9-1 0.9-0.5 0-1-0.4-1-0.9 0-0.6 0.5-1 1-1z"/><path class="a" d="m25 34.6c-1.4 0-2.5 1.1-2.5 2.5 0 1.3 1.1 2.4 2.5 2.4 1.4 0 2.5-1.1 2.5-2.4 0-1.4-1.1-2.5-2.5-2.5zm0 3.4c-0.5 0-1-0.4-1-0.9 0-0.6 0.5-1 1-1 0.5 0 1 0.4 1 1 0 0.5-0.5 0.9-1 0.9z"/><path class="a" d="m36.9 22.7c-1.4 0-2.5 1.1-2.5 2.5 0 1.3 1.1 2.4 2.5 2.4 1.4 0 2.5-1.1 2.5-2.4 0-1.4-1.1-2.5-2.5-2.5zm0 3.4c-0.5 0-1-0.4-1-0.9 0-0.6 0.5-1 1-1 0.5 0 1 0.4 1 1 0 0.5-0.5 0.9-1 0.9z"/><path class="a" d="m13.1 22.7c-1.4 0-2.5 1.1-2.5 2.5 0 1.3 1.1 2.4 2.5 2.4 1.4 0 2.5-1.1 2.5-2.4 0-1.4-1.1-2.5-2.5-2.5zm0 3.4c-0.5 0-1-0.4-1-0.9 0-0.6 0.5-1 1-1 0.5 0 1 0.4 1 1 0 0.5-0.5 0.9-1 0.9z"/></svg>