<svg width="31" height="31" viewBox="0 0 31 31" fill="none" xmlns="http://www.w3.org/2000/svg">
<g clip-path="url(#clip0_97_6698)">
<path d="M8.32135 23.1203C8.57049 23.1203 8.77252 22.9183 8.77252 22.6691V16.5419H13.4197V22.6691C13.4197 22.9183 13.6217 23.1202 13.8709 23.1202C14.12 23.1202 14.3221 22.9182 14.3221 22.6691V16.0907C14.3221 15.8415 14.12 15.6395 13.8709 15.6395H8.32129C8.07215 15.6395 7.87012 15.8416 7.87012 16.0907V22.6691C7.87012 22.9183 8.07215 23.1203 8.32135 23.1203Z" fill="#FF6600"/>
<path d="M11.9551 19.3848C11.7059 19.3848 11.5039 19.5868 11.5039 19.8359V20.7266C11.5039 20.9758 11.7059 21.1778 11.9551 21.1778C12.2042 21.1778 12.4062 20.9758 12.4062 20.7266V19.8359C12.4063 19.5868 12.2043 19.3848 11.9551 19.3848Z" fill="#FF6600"/>
<path d="M23.7873 19.7759C23.7885 19.7759 23.7895 19.7765 23.7906 19.7765C23.7918 19.7765 23.7927 19.7759 23.7939 19.7759H26.2341C26.4833 19.7759 26.6853 19.5738 26.6853 19.3247V14.218C26.6853 13.9688 26.4832 13.7668 26.2341 13.7668H23.7983C23.7956 13.7667 23.7934 13.7653 23.7907 13.7653C23.788 13.7653 23.7858 13.7667 23.7831 13.7668H21.3438C21.0946 13.7668 20.8926 13.9688 20.8926 14.218V19.3247C20.8926 19.5738 21.0946 19.7759 21.3438 19.7759H23.7873ZM25.7829 18.8735H24.2418V14.6691H25.7829V18.8735ZM21.7948 14.6691H23.3394V18.8735H21.7948V14.6691Z" fill="#FF6600"/>
<path d="M11.0918 12.8249C12.3848 12.8249 13.4366 11.7731 13.4366 10.4801C13.4366 9.192 12.3848 8.14417 11.0918 8.14417C9.80369 8.14417 8.75586 9.19194 8.75586 10.4801C8.75586 11.7731 9.80363 12.8249 11.0918 12.8249ZM11.0918 9.04657C11.8871 9.04657 12.5342 9.68963 12.5342 10.4801C12.5342 11.2754 11.8871 11.9225 11.0918 11.9225C10.3013 11.9225 9.65826 11.2754 9.65826 10.4801C9.65826 9.68969 10.3013 9.04657 11.0918 9.04657Z" fill="white"/>
<path d="M1.76276 24.9237H6.99753L1.4869 29.1786C1.28973 29.3308 1.25335 29.6141 1.40563 29.8115C1.55792 30.0089 1.84139 30.0451 2.03856 29.8928L8.47421 24.9237H12.5473L7.03672 29.1786C6.83956 29.3308 6.80317 29.6141 6.95546 29.8115C7.10798 30.009 7.39163 30.0448 7.58838 29.8928L14.024 24.9237H29.7366C29.9858 24.9237 30.1878 24.7217 30.1878 24.4726C30.1878 24.2234 29.9858 24.0214 29.7366 24.0214H29.3784V10.3845C29.3938 10.2776 29.3322 10.0835 29.2532 10.0033L24.8541 5.53653C24.7693 5.4504 24.6536 5.40194 24.5327 5.40194H20.6802V3.74808C21.4073 3.74796 21.9987 3.15651 21.9987 2.42931C21.9988 1.7021 21.4073 1.1106 20.68 1.1106H17.9773C17.25 1.1106 16.6585 1.7021 16.6585 2.42937C16.6585 3.15651 17.25 3.74802 17.9771 3.74813V5.402H16.2126C15.9634 5.402 15.7615 5.60403 15.7615 5.85317C15.7615 6.10231 15.9635 6.30435 16.2126 6.30435C23.875 6.30728 15.844 6.30435 24.344 6.30435L27.8543 9.86872H20.3412C20.0921 9.86872 19.89 10.0708 19.89 10.3199C19.89 10.569 20.0921 10.7711 20.3412 10.7711H28.4761V24.0213H18.9856V10.3217C18.9856 10.1926 18.9303 10.0695 18.8336 9.98397L11.3901 3.39341C11.3448 3.35333 11.2241 3.28589 11.1044 3.28231C10.9835 3.27862 10.8716 3.32257 10.7915 3.39364L2.26948 10.9494C2.08309 11.1146 2.06592 11.3997 2.23139 11.5863C2.39598 11.772 2.68128 11.7904 2.86831 11.6244L3.20645 11.3245V24.0214H1.76276C1.51362 24.0214 1.31159 24.2234 1.31159 24.4726C1.31159 24.7218 1.51362 24.9237 1.76276 24.9237ZM17.5609 2.42937C17.5609 2.19979 17.7477 2.013 17.9772 2.013H20.68C20.9096 2.013 21.0964 2.19979 21.0964 2.42937C21.0964 2.65894 20.9096 2.84573 20.68 2.84573C20.6182 2.84573 17.8804 2.84573 17.9772 2.84573C17.7477 2.84573 17.5609 2.65894 17.5609 2.42937ZM18.8795 3.74813H19.7779V5.402H18.8795V3.74813ZM11.0911 4.33396L18.0832 10.5249V24.0199H4.10885V10.5246C7.28118 7.71188 8.9545 6.22829 11.0911 4.33396Z" fill="#FF6600"/>
<path d="M15.2697 27.4211H13.834C13.5848 27.4211 13.3828 27.6232 13.3828 27.8723C13.3828 28.1215 13.5848 28.3235 13.834 28.3235H15.2697C15.5188 28.3235 15.7209 28.1215 15.7209 27.8723C15.7209 27.6232 15.5188 27.4211 15.2697 27.4211Z" fill="white"/>
<path d="M26.0524 27.8723C26.0524 27.6232 25.8503 27.4211 25.6012 27.4211H17.8184C17.5692 27.4211 17.3672 27.6232 17.3672 27.8723C17.3672 28.1215 17.5692 28.3235 17.8184 28.3235H25.6012C25.8503 28.3235 26.0524 28.1215 26.0524 27.8723Z" fill="white"/>
<path d="M14.5088 29.9563C14.5088 30.2054 14.7108 30.4075 14.96 30.4075H21.7102C21.9593 30.4075 22.1614 30.2054 22.1614 29.9563C22.1614 29.7071 21.9593 29.5051 21.7102 29.5051H14.96C14.7108 29.5051 14.5088 29.7071 14.5088 29.9563Z" fill="white"/>
<path d="M27.3866 26.2108C27.3866 25.9617 27.1846 25.7596 26.9355 25.7596H21.71C21.4608 25.7596 21.2588 25.9617 21.2588 26.2108C21.2588 26.46 21.4608 26.662 21.71 26.662H26.9355C27.1847 26.662 27.3866 26.46 27.3866 26.2108Z" fill="white"/>
</g>
<defs>
<clipPath id="clip0_97_6698">
<rect width="30" height="30" fill="white" transform="translate(0.75 0.759033)"/>
</clipPath>
</defs>
</svg>
