<svg width="50" height="51" viewBox="0 0 50 51" fill="none" xmlns="http://www.w3.org/2000/svg">
<path d="M46.1659 17.3535H15.6399C14.4355 17.3535 13.345 18.112 12.9258 19.2401L6.99285 35.208C6.29139 37.0984 7.69051 39.112 9.70701 39.112H40.233C41.4374 39.112 42.5279 38.3534 42.9471 37.2253L48.8801 21.2574C49.5816 19.367 48.1824 17.3535 46.1659 17.3535ZM47.4702 20.7329L41.5373 36.7009C41.3361 37.2436 40.8117 37.6078 40.2331 37.6078H9.70701C8.73367 37.6078 8.06531 36.6413 8.40281 35.7323L14.3357 19.7643C14.5369 19.2216 15.0613 18.8574 15.6399 18.8574H46.1659C47.1392 18.8575 47.8076 19.8239 47.4702 20.7329Z" fill="#FF6600"/>
<path d="M26.0446 28.8154H13.9299C13.6155 28.8154 13.3343 29.0107 13.2249 29.3053L11.3611 34.3144C11.1794 34.802 11.5396 35.3285 12.0661 35.3285H24.186C24.5004 35.3285 24.7816 35.1332 24.891 34.838L26.7497 29.8289C26.932 29.3394 26.5691 28.8154 26.0446 28.8154ZM23.6631 33.8245H13.1484L14.4526 30.3194H24.9636L23.6631 33.8245Z" fill="#FF6600"/>
<path d="M14.92 27.6515H27.0391C27.3535 27.6515 27.6347 27.4562 27.7441 27.1609L29.6035 22.1511C29.6894 21.9205 29.6563 21.6627 29.516 21.4601C29.375 21.2581 29.1445 21.1377 28.8985 21.1377H16.7838C16.4695 21.1377 16.1882 21.333 16.0788 21.6275L14.2151 26.6374C14.1291 26.868 14.1622 27.1265 14.3025 27.3284C14.4434 27.5311 14.674 27.6515 14.92 27.6515ZM17.3067 22.6417H27.8176L26.5163 26.1476H16.0025L17.3067 22.6417Z" fill="#FF6600"/>
<path d="M40.951 28.8154H28.8361C28.5218 28.8154 28.2405 29.0107 28.1312 29.3053L26.2674 34.3144C26.0856 34.802 26.4458 35.3285 26.9724 35.3285H39.0915C39.4059 35.3285 39.6871 35.1332 39.7965 34.838L41.6559 29.8289C41.8382 29.3397 41.4756 28.8154 40.951 28.8154ZM38.5687 33.8245H28.0548L29.359 30.3194H39.8699L38.5687 33.8245Z" fill="#FF6600"/>
<path d="M43.8034 21.1376H31.6887C31.3743 21.1376 31.0931 21.3329 30.9837 21.6275L29.1199 26.6373C28.9382 27.1249 29.2983 27.6515 29.8249 27.6515H41.9448C42.2591 27.6515 42.5404 27.4562 42.6498 27.161L44.5085 22.1511C44.6908 21.6616 44.3278 21.1376 43.8034 21.1376ZM41.4219 26.1474H30.9072L32.2114 22.6415H42.7224L41.4219 26.1474Z" fill="#FF6600"/>
<path d="M23.1771 40.6129C22.7615 40.6129 22.4252 40.9492 22.4252 41.3649V44.5042H21.5491C19.1933 44.5042 17.2773 46.4201 17.2773 48.776C17.2773 49.1916 17.6137 49.528 18.0293 49.528H33.0814C33.4971 49.528 33.8334 49.1916 33.8334 48.776C33.8334 46.4201 31.9175 44.5042 29.5623 44.5042H28.6892V41.3649C28.6892 40.9492 28.3528 40.6129 27.9372 40.6129C27.5216 40.6129 27.1853 40.9492 27.1853 41.3649V44.5013H23.9291V41.3649C23.9291 40.9492 23.5928 40.6129 23.1771 40.6129ZM32.226 48.024H18.8848C19.2138 46.8623 20.2837 46.0082 21.549 46.0082H29.5624C30.8277 46.0082 31.8977 46.8623 32.226 48.024Z" fill="#FF6600"/>
<path d="M4.95703 8.90321C4.95703 10.8155 6.51904 12.3709 8.43867 12.3709C10.3502 12.3709 11.9056 10.8155 11.9056 8.90321C11.9056 6.98358 10.3502 5.42157 8.43867 5.42157C6.51904 5.42157 4.95703 6.98358 4.95703 8.90321ZM8.43857 6.92557C9.521 6.92557 10.4016 7.81268 10.4016 8.90321C10.4016 9.98563 9.52109 10.8669 8.43857 10.8669C7.34805 10.8669 6.46094 9.98563 6.46094 8.90321C6.46094 7.81268 7.34805 6.92557 8.43857 6.92557Z" fill="white"/>
<path d="M9.18359 2.84391V2.15289C9.18359 1.73727 8.84727 1.40094 8.43164 1.40094C8.01602 1.40094 7.67969 1.73727 7.67969 2.15289V2.84391C7.67969 3.25953 8.01602 3.59586 8.43164 3.59586C8.84727 3.59596 9.18359 3.25963 9.18359 2.84391Z" fill="white"/>
<path d="M7.67969 14.9484V15.6394C7.67969 16.0551 8.01602 16.3914 8.43164 16.3914C8.84727 16.3914 9.18359 16.0551 9.18359 15.6394V14.9484C9.18359 14.5328 8.84727 14.1965 8.43164 14.1965C8.01602 14.1965 7.67969 14.5328 7.67969 14.9484Z" fill="white"/>
<path d="M12.667 3.59595L12.1786 4.08501C11.8856 4.37944 11.8856 4.85532 12.1794 5.14907C12.4736 5.44185 12.9497 5.44214 13.2435 5.14829L13.7318 4.65923C14.0248 4.36479 14.0248 3.88892 13.7311 3.59517C13.4373 3.30288 12.9607 3.3022 12.667 3.59595Z" fill="white"/>
<path d="M4.19561 14.1964L4.68398 13.7074C4.97695 13.413 4.97695 12.9371 4.6832 12.6433C4.38945 12.351 3.91289 12.3504 3.61914 12.6441L3.13076 13.1332C2.83779 13.4276 2.83779 13.9035 3.13154 14.1972C3.42568 14.4899 3.90186 14.4902 4.19561 14.1964Z" fill="white"/>
<path d="M14.4844 9.64856H15.1754C15.591 9.64856 15.9273 9.31223 15.9273 8.89661C15.9273 8.48098 15.591 8.14465 15.1754 8.14465H14.4844C14.0687 8.14465 13.7324 8.48098 13.7324 8.89661C13.7324 9.31223 14.0687 9.64856 14.4844 9.64856Z" fill="white"/>
<path d="M2.37881 8.14459H1.68848C1.27285 8.14459 0.936523 8.48092 0.936523 8.89655C0.936523 9.31217 1.27285 9.6485 1.68848 9.6485H2.37881C2.79443 9.6485 3.13076 9.31217 3.13076 8.89655C3.13076 8.48092 2.79453 8.14459 2.37881 8.14459Z" fill="white"/>
<path d="M12.1786 13.7073L12.667 14.1964C12.9604 14.4899 13.4366 14.4902 13.7311 14.1972C14.0248 13.9034 14.0248 13.4276 13.7318 13.1331L13.2435 12.6441C12.9497 12.3503 12.4731 12.3511 12.1794 12.6433C11.8856 12.937 11.8856 13.4128 12.1786 13.7073Z" fill="white"/>
<path d="M4.68398 4.08503L4.19561 3.59597C3.90186 3.30222 3.42529 3.303 3.13154 3.59519C2.83779 3.88894 2.83779 4.36482 3.13076 4.65925L3.61914 5.14832C3.9126 5.44177 4.38877 5.44207 4.6832 5.1491C4.97705 4.85535 4.97705 4.37947 4.68398 4.08503Z" fill="white"/>
</svg>
