<svg width="31" height="31" viewBox="0 0 31 31" fill="none" xmlns="http://www.w3.org/2000/svg">
<g clip-path="url(#clip0_97_6713)">
<path d="M1.70365 28.1089C1.8874 28.171 2.09049 28.1075 2.20727 27.952C2.78934 27.1783 3.67785 26.7346 4.64541 26.7346H4.6474C5.61391 26.7351 6.50066 27.1788 7.08051 27.9516C7.19881 28.1096 7.40377 28.1699 7.58412 28.1089C7.76828 28.0477 7.89256 27.8754 7.89256 27.6811C7.89256 23.4312 7.89256 9.49041 7.89256 5.23996C7.89256 5.14217 7.86086 5.04742 7.80221 4.96943C7.05074 3.96701 5.90096 3.39156 4.64811 3.39109C4.64699 3.39063 4.64635 3.39062 4.64547 3.39062C3.39145 3.39062 2.24014 3.96607 1.48604 4.96891C1.42721 5.04689 1.39551 5.14205 1.39551 5.2399V27.681C1.39545 27.8753 1.51967 28.0476 1.70365 28.1089ZM2.29785 20.9637V16.648C3.51777 15.169 5.77053 15.1653 6.99021 16.6476V20.9627C5.60482 19.9321 3.69947 19.9214 2.29785 20.9637ZM6.99016 15.3641C5.60477 14.3336 3.69947 14.3229 2.29779 15.3652V11.0495C3.51771 9.57045 5.77047 9.56676 6.99016 11.0491V15.3641ZM4.64811 25.8322C4.64699 25.8322 4.64635 25.8322 4.64547 25.8322C3.78232 25.8322 2.96758 26.1045 2.29785 26.6015V22.2465C3.51777 20.7674 5.77053 20.7637 6.99021 22.246V26.6002C6.32219 26.1045 5.50949 25.8326 4.64811 25.8322ZM4.64541 4.29303C4.64605 4.29303 4.64676 4.29303 4.6474 4.2935C5.56498 4.29396 6.41078 4.69404 6.99016 5.39594V9.76604C5.61613 8.74375 3.71061 8.71621 2.29779 9.76709V5.39635C2.87922 4.69357 3.72672 4.29303 4.64541 4.29303Z" fill="white"/>
<path d="M22.6288 4.5371C22.8563 4.63489 23.1225 4.53048 23.2216 4.30179C23.3205 4.07269 23.215 3.80743 22.9861 3.7087C21.479 3.05837 19.7622 3.4138 18.6308 4.55597C17.8955 3.81235 16.9055 3.39142 15.8378 3.39101C15.8369 3.39054 15.836 3.39054 15.8351 3.39054C14.7658 3.39054 13.7733 3.81218 13.0358 4.55743C11.9077 3.41521 10.1898 3.06095 8.67772 3.71304C8.44903 3.81171 8.3435 4.07743 8.4424 4.30612C8.54108 4.53482 8.80569 4.63923 9.03549 4.54144C10.2866 4.00038 11.725 4.35329 12.5833 5.39714V9.80374C11.6098 9.07935 10.3419 8.84099 9.11764 9.19876C8.87858 9.26884 8.74158 9.5195 8.8116 9.7588C8.88121 9.99804 9.13258 10.1342 9.37141 10.065C10.5652 9.71392 11.81 10.1063 12.585 11.0557V15.3601C11.6106 14.6333 10.3436 14.3895 9.11758 14.7484C8.87852 14.8184 8.74153 15.0691 8.81155 15.3084C8.88115 15.5476 9.13252 15.6833 9.37135 15.6146C10.5621 15.2643 11.8077 15.6481 12.5832 16.5915V20.9977C11.6092 20.2737 10.3418 20.0345 9.11752 20.3927C8.87846 20.4628 8.74147 20.7134 8.81149 20.9527C8.8811 21.192 9.13246 21.3281 9.37129 21.2589C10.5658 20.9081 11.8079 21.3 12.5832 22.2474V26.597C11.6096 25.8726 10.3417 25.6338 9.11746 25.992C8.8784 26.0621 8.74141 26.3128 8.81143 26.5521C8.88104 26.7913 9.1324 26.927 9.37123 26.8583C10.6087 26.4948 11.9061 26.923 12.6728 27.9497C12.6758 27.9538 12.681 27.9552 12.6842 27.9592C12.8755 28.2012 13.2242 28.1809 13.3967 27.9519C13.9788 27.1781 14.8673 26.7345 15.8349 26.7345H15.8369C16.7994 26.7349 17.6825 27.1754 18.2625 27.9424C18.2631 27.9432 18.2639 27.9438 18.2645 27.9447C18.2663 27.9471 18.2684 27.9491 18.2702 27.9515C18.2716 27.9533 18.274 27.954 18.2755 27.9559C18.4748 28.2108 18.843 28.1639 19.0003 27.9386C19.7743 26.9234 21.0647 26.4968 22.2933 26.8539C22.5328 26.9235 22.7829 26.7856 22.8527 26.5468C22.922 26.3075 22.7846 26.0572 22.5453 25.9876C21.3252 25.6327 20.0587 25.8742 19.0823 26.5992V22.2459C19.8632 21.3018 21.1052 20.9096 22.2933 21.2545C22.5328 21.3246 22.7829 21.1862 22.8527 20.9474C22.922 20.7082 22.7846 20.4578 22.5453 20.3882C21.3252 20.0329 20.0587 20.2752 19.0823 20.9998V16.6509C19.8631 15.7065 21.1043 15.3146 22.2933 15.66C22.5328 15.73 22.7829 15.5916 22.8527 15.3529C22.922 15.1136 22.7846 14.8633 22.5453 14.7937C21.3252 14.4383 20.0583 14.6803 19.0823 15.4049V11.0522C19.8626 10.1075 21.105 9.71521 22.2933 10.0606C22.5328 10.1311 22.7829 9.9923 22.8527 9.75353C22.8711 9.68995 22.873 9.62626 22.8643 9.56474C22.8585 9.37442 22.738 9.20064 22.5453 9.14456C21.3241 8.78901 20.0588 9.03499 19.0823 9.76138V5.39562C19.9445 4.35353 21.3809 3.99816 22.6288 4.5371ZM13.4875 11.0495C14.7059 9.57218 16.957 9.56567 18.1781 11.0467V15.3628C16.785 14.3279 14.8809 14.3293 13.4875 15.3651V11.0495ZM13.4875 16.648C14.7059 15.1707 16.957 15.1641 18.1781 16.6452V20.9612C16.785 19.9263 14.8809 19.9277 13.4875 20.9636V16.648ZM15.8351 4.293C15.8358 4.293 15.8365 4.293 15.8371 4.29347C16.7539 4.29394 17.5988 4.69325 18.1781 5.39374V9.7646C16.7877 8.73142 14.8837 8.72861 13.4875 9.76706V5.39632C14.0691 4.69355 14.9164 4.293 15.8351 4.293ZM15.8378 25.8322C15.8369 25.8322 15.836 25.8322 15.8351 25.8322C14.9722 25.8322 14.1572 26.1045 13.4875 26.6015V22.2465C14.7059 20.7692 16.957 20.7626 18.1781 22.2437V26.5994C17.5104 26.1041 16.6986 25.8326 15.8378 25.8322Z" fill="#FF6600"/>
<path d="M27.0265 3.39109C27.0259 3.39063 27.025 3.39062 27.0241 3.39062C25.7703 3.39062 24.619 3.96607 23.8649 4.96891C23.8061 5.04689 23.7744 5.14205 23.7744 5.2399V27.681C23.7744 27.8753 23.8985 28.0476 24.0826 28.1089C24.2664 28.171 24.4697 28.1075 24.5862 27.952C25.1683 27.1783 26.0566 26.7346 27.0241 26.7346H27.0261C27.9926 26.7351 28.8796 27.1788 29.4595 27.9516C29.5462 28.0675 29.6811 28.1322 29.8204 28.1322C29.8679 28.1322 29.9162 28.1247 29.9631 28.1089C30.1472 28.0476 30.2715 27.8753 30.2715 27.681C30.2715 20.211 30.2715 12.7198 30.2715 5.2399C30.2715 5.14211 30.2398 5.04736 30.1812 4.96938C29.4295 3.96701 28.2797 3.39156 27.0265 3.39109ZM29.3691 15.3643C27.9893 14.3379 26.0838 14.3188 24.6767 15.3652V11.0495C25.8967 9.57027 28.1494 9.56682 29.3691 11.0491V15.3643ZM24.6768 20.9637V16.648C25.8967 15.1688 28.1494 15.1653 29.3691 16.6476V20.9628C27.9893 19.9364 26.0839 19.9173 24.6768 20.9637ZM27.0241 4.29303C27.0248 4.29303 27.0255 4.29303 27.0261 4.2935C27.9437 4.29396 28.7897 4.69404 29.3691 5.39594V9.76615C28.0008 8.74809 26.0951 8.71205 24.6768 9.76709V5.39635C25.2581 4.69311 26.1057 4.29303 27.0241 4.29303ZM27.0265 25.8322C27.0259 25.8322 27.025 25.8322 27.0241 25.8322C26.161 25.8322 25.3465 26.1045 24.6768 26.6015V22.2465C25.8967 20.7673 28.1494 20.7638 29.3691 22.2461V26.6007C28.7009 26.1045 27.8882 25.8326 27.0265 25.8322Z" fill="#FF6600"/>
</g>
<defs>
<clipPath id="clip0_97_6713">
<rect width="30" height="30" fill="white" transform="translate(0.833984 0.759033)"/>
</clipPath>
</defs>
</svg>
