<svg version="1.2" xmlns="http://www.w3.org/2000/svg" viewBox="0 0 30 31" width="30" height="31"><style>.a{fill:#58c4c2}</style><path class="a" d="m5.4 6.5l0.9 1.8 2 0.3c0.4 0.1 0.5 0.5 0.3 0.8l-1.5 1.4 0.4 2c0 0.3-0.4 0.6-0.7 0.4l-1.8-0.9-1.7 0.9c-0.4 0.2-0.8-0.1-0.7-0.5l0.3-1.9-1.4-1.4c-0.3-0.3-0.1-0.8 0.3-0.8l1.9-0.3 0.9-1.8c0.2-0.3 0.7-0.3 0.8 0zm0.2 2.5l-0.6-1.2-0.5 1.2c-0.1 0.1-0.2 0.2-0.4 0.2l-1.3 0.2 1 0.9q0.1 0.2 0.1 0.4l-0.2 1.3 1.1-0.6c0.1-0.1 0.3-0.1 0.5 0l1.1 0.6-0.2-1.3c-0.1-0.1 0-0.3 0.1-0.4l0.9-0.9-1.2-0.2c-0.2 0-0.3-0.1-0.4-0.2zm9.8-6.7l0.9 1.8 2 0.3c0.4 0 0.5 0.5 0.2 0.8l-1.4 1.3 0.4 2c0 0.4-0.4 0.7-0.7 0.5l-1.8-0.9-1.8 0.9c-0.3 0.2-0.7-0.1-0.6-0.5l0.3-2-1.4-1.4c-0.3-0.2-0.2-0.7 0.2-0.8l2-0.2 0.9-1.8c0.2-0.4 0.7-0.4 0.8 0zm0.2 2.4l-0.6-1.1-0.6 1.1c0 0.1-0.2 0.3-0.3 0.3l-1.3 0.1 0.9 0.9q0.2 0.2 0.2 0.5l-0.3 1.2 1.2-0.6q0.2-0.1 0.4 0l1.2 0.6-0.3-1.2c0-0.2 0-0.3 0.2-0.5l0.9-0.9-1.3-0.1c-0.1 0-0.3-0.1-0.3-0.3zm9.8 1.8l0.9 1.8 1.9 0.3c0.4 0.1 0.6 0.5 0.3 0.8l-1.4 1.4 0.3 2c0.1 0.3-0.3 0.6-0.7 0.4l-1.7-0.9-1.8 0.9c-0.3 0.2-0.8-0.1-0.7-0.5l0.4-1.9-1.5-1.4c-0.2-0.3-0.1-0.8 0.3-0.8l2-0.3 0.9-1.8c0.1-0.3 0.6-0.3 0.8 0zm0.1 2.5l-0.5-1.2-0.6 1.2q-0.1 0.2-0.3 0.2l-1.3 0.2 0.9 0.9q0.2 0.2 0.1 0.4l-0.2 1.3 1.1-0.6c0.2-0.1 0.3-0.1 0.5 0l1.1 0.6-0.2-1.3c0-0.1 0-0.3 0.1-0.4l1-0.9-1.3-0.2c-0.2 0-0.3-0.1-0.4-0.2zm-10.5 1.6c4.1 0 7.5 3.4 7.5 7.5 0 1.6-0.5 3.1-1.3 4.3l2.2 3.9c0.3 0.3 0 0.7-0.4 0.7l-2.3-0.4-1.2 1.5c-0.3 0.3-0.7 0.3-0.8 0l-1.6-2.7c-1.4 0.4-2.8 0.4-4.2 0l-1.6 2.7c-0.1 0.3-0.5 0.3-0.8 0l-1.2-1.5-2.3 0.4c-0.4 0-0.6-0.4-0.5-0.7l2.3-3.9c-2-3-1.7-7 0.9-9.6 1.3-1.3 3.2-2.2 5.3-2.2zm4.7 2.9c-2.6-2.6-6.8-2.6-9.3 0-2.6 2.6-2.6 6.7 0 9.3 2.5 2.6 6.7 2.6 9.3 0 2.5-2.6 2.5-6.7 0-9.3zm-4.7 0c2.5 0 4.6 2.1 4.6 4.7 0 2.5-2.1 4.6-4.6 4.6-2.5 0-4.6-2.1-4.6-4.6 0-2.6 2.1-4.7 4.6-4.7zm2.6 2.1c-1.4-1.5-3.8-1.5-5.2 0-1.4 1.4-1.4 3.7 0 5.2 1.4 1.4 3.8 1.4 5.2 0 1.4-1.5 1.4-3.8 0-5.2zm3 7.6c-0.7 0.8-1.6 1.4-2.6 1.8l1.1 2 1-1.2c0.1-0.1 0.3-0.2 0.5-0.1l1.6 0.2zm-8.6 1.9c-1-0.5-1.9-1.1-2.6-1.9l-1.6 2.7 1.6-0.2c0.2 0 0.3 0 0.4 0.2l1 1.2zm0.8-6.6c-0.1-0.2 0-0.5 0.2-0.6 0.2-0.2 0.5-0.1 0.7 0.1l0.6 1.1 2.2-2.2c0.1-0.2 0.4-0.2 0.6 0 0.2 0.2 0.2 0.5 0 0.7l-2.6 2.6c-0.2 0.2-0.6 0.2-0.7-0.1z"/></svg>