<svg width="50" height="51" viewBox="0 0 50 51" fill="none" xmlns="http://www.w3.org/2000/svg">
<path d="M46.1659 17.5625H15.6399C14.4355 17.5625 13.345 18.3211 12.9258 19.4491L6.99285 35.4171C6.29139 37.3074 7.69051 39.321 9.70701 39.321H40.233C41.4374 39.321 42.5279 38.5624 42.9471 37.4344L48.8801 21.4664C49.5816 19.5761 48.1824 17.5625 46.1659 17.5625ZM47.4702 20.942L41.5373 36.91C41.3361 37.4526 40.8117 37.8169 40.2331 37.8169H9.70701C8.73367 37.8169 8.06531 36.8504 8.40281 35.9413L14.3357 19.9733C14.5369 19.4307 15.0613 19.0664 15.6399 19.0664H46.1659C47.1392 19.0665 47.8076 20.0329 47.4702 20.942Z" fill="#FF6600"/>
<path d="M26.0446 29.0244H13.9299C13.6155 29.0244 13.3343 29.2197 13.2249 29.5143L11.3611 34.5233C11.1794 35.0109 11.5396 35.5375 12.0661 35.5375H24.186C24.5004 35.5375 24.7816 35.3422 24.891 35.047L26.7497 30.0379C26.932 29.5483 26.5691 29.0244 26.0446 29.0244ZM23.6631 34.0335H13.1484L14.4526 30.5284H24.9636L23.6631 34.0335Z" fill="#FF6600"/>
<path d="M14.92 27.8605H27.0391C27.3535 27.8605 27.6347 27.6651 27.7441 27.3699L29.6035 22.3601C29.6894 22.1295 29.6563 21.8717 29.516 21.669C29.375 21.4671 29.1445 21.3467 28.8985 21.3467H16.7838C16.4695 21.3467 16.1882 21.542 16.0788 21.8365L14.2151 26.8464C14.1291 27.077 14.1622 27.3354 14.3025 27.5374C14.4434 27.74 14.674 27.8605 14.92 27.8605ZM17.3067 22.8507H27.8176L26.5163 26.3565H16.0025L17.3067 22.8507Z" fill="#FF6600"/>
<path d="M40.951 29.0244H28.8361C28.5218 29.0244 28.2405 29.2197 28.1312 29.5143L26.2674 34.5233C26.0856 35.0109 26.4458 35.5375 26.9724 35.5375H39.0915C39.4059 35.5375 39.6871 35.3422 39.7965 35.047L41.6559 30.0379C41.8382 29.5486 41.4756 29.0244 40.951 29.0244ZM38.5687 34.0335H28.0548L29.359 30.5284H39.8699L38.5687 34.0335Z" fill="#FF6600"/>
<path d="M43.8034 21.3467H31.6887C31.3743 21.3467 31.0931 21.542 30.9837 21.8365L29.1199 26.8464C28.9382 27.334 29.2983 27.8605 29.8249 27.8605H41.9448C42.2591 27.8605 42.5404 27.6652 42.6498 27.37L44.5085 22.3602C44.6908 21.8706 44.3278 21.3467 43.8034 21.3467ZM41.4219 26.3564H30.9072L32.2114 22.8506H42.7224L41.4219 26.3564Z" fill="#FF6600"/>
<path d="M23.1771 40.8218C22.7615 40.8218 22.4252 41.1581 22.4252 41.5737V44.7131H21.5491C19.1933 44.7131 17.2773 46.629 17.2773 48.9849C17.2773 49.4005 17.6137 49.7368 18.0293 49.7368H33.0814C33.4971 49.7368 33.8334 49.4005 33.8334 48.9849C33.8334 46.629 31.9175 44.7131 29.5623 44.7131H28.6892V41.5737C28.6892 41.1581 28.3528 40.8218 27.9372 40.8218C27.5216 40.8218 27.1853 41.1581 27.1853 41.5737V44.7102H23.9291V41.5737C23.9291 41.1581 23.5928 40.8218 23.1771 40.8218ZM32.226 48.2329H18.8848C19.2138 47.0712 20.2837 46.2171 21.549 46.2171H29.5624C30.8277 46.2171 31.8977 47.0712 32.226 48.2329Z" fill="#FF6600"/>
<path d="M4.95703 9.11201C4.95703 11.0243 6.51904 12.5797 8.43867 12.5797C10.3502 12.5797 11.9056 11.0243 11.9056 9.11201C11.9056 7.19238 10.3502 5.63037 8.43867 5.63037C6.51904 5.63037 4.95703 7.19238 4.95703 9.11201ZM8.43857 7.13438C9.521 7.13438 10.4016 8.02148 10.4016 9.11201C10.4016 10.1944 9.52109 11.0757 8.43857 11.0757C7.34805 11.0757 6.46094 10.1944 6.46094 9.11201C6.46094 8.02148 7.34805 7.13438 8.43857 7.13438Z" fill="#1E1E1E"/>
<path d="M9.18359 3.05283V2.36182C9.18359 1.94619 8.84727 1.60986 8.43164 1.60986C8.01602 1.60986 7.67969 1.94619 7.67969 2.36182V3.05283C7.67969 3.46846 8.01602 3.80478 8.43164 3.80478C8.84727 3.80488 9.18359 3.46855 9.18359 3.05283Z" fill="#1E1E1E"/>
<path d="M7.67969 15.1572V15.8482C7.67969 16.2639 8.01602 16.6002 8.43164 16.6002C8.84727 16.6002 9.18359 16.2639 9.18359 15.8482V15.1572C9.18359 14.7416 8.84727 14.4053 8.43164 14.4053C8.01602 14.4053 7.67969 14.7416 7.67969 15.1572Z" fill="#1E1E1E"/>
<path d="M12.667 3.80511L12.1786 4.29418C11.8856 4.58861 11.8856 5.06449 12.1794 5.35824C12.4736 5.65101 12.9497 5.65131 13.2435 5.35746L13.7318 4.8684C14.0248 4.57396 14.0248 4.09808 13.7311 3.80433C13.4373 3.51205 12.9607 3.51136 12.667 3.80511Z" fill="#1E1E1E"/>
<path d="M4.19561 14.4053L4.68398 13.9162C4.97695 13.6218 4.97695 13.1459 4.6832 12.8522C4.38945 12.5599 3.91289 12.5592 3.61914 12.853L3.13076 13.342C2.83779 13.6365 2.83779 14.1123 3.13154 14.4061C3.42568 14.6988 3.90186 14.6991 4.19561 14.4053Z" fill="#1E1E1E"/>
<path d="M14.4844 9.85742H15.1754C15.591 9.85742 15.9273 9.52109 15.9273 9.10547C15.9273 8.68984 15.591 8.35352 15.1754 8.35352H14.4844C14.0687 8.35352 13.7324 8.68984 13.7324 9.10547C13.7324 9.52109 14.0687 9.85742 14.4844 9.85742Z" fill="#1E1E1E"/>
<path d="M2.37881 8.35352H1.68848C1.27285 8.35352 0.936523 8.68984 0.936523 9.10547C0.936523 9.52109 1.27285 9.85742 1.68848 9.85742H2.37881C2.79443 9.85742 3.13076 9.52109 3.13076 9.10547C3.13076 8.68984 2.79453 8.35352 2.37881 8.35352Z" fill="#1E1E1E"/>
<path d="M12.1786 13.9162L12.667 14.4053C12.9604 14.6987 13.4366 14.699 13.7311 14.4061C14.0248 14.1123 14.0248 13.6364 13.7318 13.342L13.2435 12.8529C12.9497 12.5592 12.4731 12.56 12.1794 12.8521C11.8856 13.1459 11.8856 13.6217 12.1786 13.9162Z" fill="#1E1E1E"/>
<path d="M4.68398 4.29414L4.19561 3.80508C3.90186 3.51133 3.42529 3.51211 3.13154 3.8043C2.83779 4.09805 2.83779 4.57393 3.13076 4.86836L3.61914 5.35742C3.9126 5.65088 4.38877 5.65117 4.6832 5.3582C4.97705 5.06445 4.97705 4.58857 4.68398 4.29414Z" fill="#1E1E1E"/>
</svg>
