<svg width="30" height="30" viewBox="0 0 30 30" fill="none" xmlns="http://www.w3.org/2000/svg">
<mask id="mask0_1325_55" style="mask-type:luminance" maskUnits="userSpaceOnUse" x="0" y="0" width="30" height="30">
<path d="M30 0.734375H0V29.7666H30V0.734375Z" fill="white"/>
</mask>
<g mask="url(#mask0_1325_55)">
<path d="M3.00838 29.2268H26.9934C28.3417 29.2268 29.4388 28.1652 29.4388 26.8602V11.0931C29.4388 10.2932 29.026 9.55144 28.3342 9.10903C28.1263 8.97555 27.8464 9.03124 27.7089 9.23248C27.5715 9.43355 27.6287 9.70449 27.8363 9.83737C28.2747 10.1179 28.5364 10.5872 28.5364 11.0931V26.8602C28.5364 27.6836 27.8442 28.3535 26.9933 28.3535H3.00838C2.15713 28.3535 1.46491 27.6836 1.46491 26.8602V11.0931C1.46491 10.2697 2.15713 9.5998 3.00838 9.5998H24.4757C24.7251 9.5998 24.9269 9.40429 24.9269 9.16318C24.9269 8.92208 24.7251 8.72656 24.4757 8.72656H3.00838C1.65967 8.72656 0.5625 9.78811 0.5625 11.0931V26.8602C0.5625 28.1652 1.65961 29.2268 3.00838 29.2268Z" fill="#FF6600"/>
<path d="M8.5502 15.654C8.78376 15.5124 9.15518 15.4133 9.43497 15.598C10.3841 16.225 11.6645 16.2258 12.6206 15.601C12.8542 15.4475 13.1837 15.4489 13.4199 15.6029C13.8953 15.9142 14.4514 16.0695 15.0075 16.0695C15.5662 16.0695 16.1253 15.9124 16.6012 15.5982C16.8347 15.4438 17.1612 15.4451 17.3964 15.5996C18.3464 16.2252 19.6255 16.226 20.5799 15.6008C20.8619 15.4158 21.2223 15.508 21.466 15.6555C21.6775 15.7834 21.9559 15.721 22.0877 15.5167C22.2199 15.3122 22.1555 15.0428 21.9445 14.9148C21.3267 14.5409 20.6094 14.5268 20.0741 14.8775C19.4229 15.3035 18.5509 15.3037 17.904 14.8778C17.3616 14.52 16.6333 14.5202 16.0927 14.8767C15.4459 15.304 14.5756 15.3045 13.9253 14.8794C13.382 14.5246 12.6541 14.5244 12.1152 14.8775C11.4627 15.3042 10.5907 15.304 9.94345 14.8764C9.40895 14.5234 8.69124 14.5379 8.07085 14.9142C7.85979 15.0424 7.79593 15.3118 7.92852 15.5161C8.06065 15.7203 8.33868 15.7817 8.5502 15.654Z" fill="white"/>
<path d="M23.4142 19.2663C23.4142 19.0251 23.2124 18.8297 22.963 18.8297C22.6004 18.8297 22.2476 18.7321 21.9422 18.5476C21.3244 18.1735 20.607 18.1596 20.0717 18.5103C19.4205 18.9363 18.5485 18.9365 17.9016 18.5105C17.3592 18.1528 16.6309 18.1531 16.0903 18.5095C15.4435 18.9365 14.5732 18.9376 13.9229 18.5123C13.3796 18.1574 12.6517 18.1573 12.1128 18.5103C11.4603 18.9369 10.5884 18.9367 9.94109 18.5093C9.4066 18.1566 8.68888 18.1709 8.06849 18.5469C7.76404 18.7321 7.40978 18.8297 7.04492 18.8297C6.79554 18.8297 6.59375 19.0252 6.59375 19.2663C6.59375 19.5074 6.79554 19.7029 7.04492 19.7029C7.57982 19.7029 8.09931 19.559 8.54785 19.2868C8.7814 19.1452 9.15283 19.0456 9.43261 19.2306C10.3818 19.8577 11.6621 19.8585 12.6182 19.2336C12.8518 19.0802 13.1813 19.0817 13.4175 19.2356C14.3706 19.8597 15.6493 19.8579 16.5989 19.2309C16.8324 19.0768 17.1588 19.0778 17.394 19.2324C18.344 19.8579 19.6231 19.8585 20.5775 19.2334C20.8595 19.0491 21.2199 19.1407 21.464 19.2882C21.9126 19.5595 22.4312 19.7029 22.963 19.7029C23.2124 19.703 23.4142 19.5074 23.4142 19.2663Z" fill="white"/>
<path d="M20.0741 22.151C19.4228 22.5769 18.5509 22.5772 17.904 22.1512C17.3616 21.7937 16.6333 21.7934 16.0927 22.1501C15.4459 22.5772 14.5752 22.5784 13.9257 22.1531C13.3824 21.7981 12.6541 21.7977 12.1152 22.151C11.4627 22.5776 10.5907 22.5774 9.94345 22.1499C9.40895 21.7966 8.69124 21.8111 8.07085 22.1877C7.85979 22.3158 7.79593 22.5852 7.92852 22.7895C8.06071 22.9938 8.33874 23.0551 8.55026 22.9275C8.78382 22.7859 9.15524 22.6865 9.43503 22.8714C10.3841 23.4984 11.6646 23.4992 12.6207 22.8744C12.8538 22.7211 13.1834 22.7213 13.42 22.8767C14.3828 23.5062 15.6614 23.4923 16.6012 22.8716C16.8348 22.7175 17.1612 22.7187 17.3965 22.8731C18.3465 23.4987 19.6256 23.4992 20.58 22.8742C20.862 22.6897 21.2224 22.7814 21.466 22.9289C21.6775 23.0566 21.956 22.9942 22.0878 22.7901C22.2199 22.5857 22.1556 22.3162 21.9445 22.1882C21.3267 21.8141 20.6094 21.8005 20.0741 22.151Z" fill="white"/>
<path d="M17.3121 1.71787C17.3121 1.95897 17.5139 2.15449 17.7633 2.15449H25.8275V16.2756C25.8274 16.2794 25.8252 16.2824 25.8252 16.2862V25.7308H4.16804V12.2168H24.4717C24.7211 12.2168 24.9229 12.0212 24.9229 11.7802C24.9229 11.539 24.7211 11.3435 24.4717 11.3435H3.7168C3.46742 11.3435 3.26562 11.539 3.26562 11.7802V26.1675C3.26562 26.4086 3.46742 26.604 3.7168 26.604H26.2764C26.5258 26.604 26.7276 26.4086 26.7276 26.1675V16.2963C26.7277 16.2926 26.7298 16.2896 26.7298 16.2857V1.71787C26.7298 1.47676 26.528 1.28125 26.2786 1.28125H17.7633C17.5139 1.28125 17.3121 1.47676 17.3121 1.71787Z" fill="#FF6600"/>
</g>
</svg>
