<svg version="1.2" xmlns="http://www.w3.org/2000/svg" viewBox="0 0 30 31" width="30" height="31"><defs><clipPath clipPathUnits="userSpaceOnUse" id="cp1"><path d="m0 0.62h30v30h-30z"/></clipPath></defs><style>.a{fill:#f60}</style><filter id="f0"><feFlood flood-color="#58c4c2" flood-opacity="1" /><feBlend mode="normal" in2="SourceGraphic"/><feComposite in2="SourceAlpha" operator="in" /></filter><g clip-path="url(#cp1)" filter="url(#f0)"><path class="a" d="m15 0.6c-6.1 0-11 4.9-11 11 0 5.9 10.2 18.3 10.6 18.8q0.2 0.2 0.4 0.2 0.2 0 0.4-0.2c0.4-0.5 10.6-12.9 10.6-18.8 0-6.1-4.9-11-11-11zm0 28.7c-1.9-2.3-10-12.7-10-17.7 0-5.5 4.5-10 10-10 5.5 0 10 4.5 10 10 0 5-8.1 15.4-10 17.7z"/><path class="a" d="m21.8 9.7l-6.5-5c-0.2-0.1-0.4-0.1-0.6 0l-6.5 5c-0.2 0.2-0.3 0.5-0.1 0.7q0.2 0.2 0.4 0.2h1.5v5.5c0 0.3 0.2 0.5 0.5 0.5h9c0.3 0 0.5-0.2 0.5-0.5v-5.5h1.5c0.3 0 0.5-0.2 0.5-0.5q0-0.2-0.2-0.4zm-2.3-0.1c-0.3 0-0.5 0.2-0.5 0.5v5.5h-2v-3.5c0-0.3-0.2-0.5-0.5-0.5h-3c-0.3 0-0.5 0.2-0.5 0.5v3.5h-2v-5.5c0-0.3-0.2-0.5-0.5-0.5h-0.5l5-3.8 5 3.8zm-3.5 6h-2v-3h2z"/></g></svg>