<svg width="50" height="51" viewBox="0 0 50 51" fill="none" xmlns="http://www.w3.org/2000/svg">
<path d="M12.6192 37.7334C13.0345 37.7334 13.3712 37.3967 13.3712 36.9814V26.7693H21.1165V36.9813C21.1165 37.3967 21.4532 37.7333 21.8685 37.7333C22.2837 37.7333 22.6204 37.3966 22.6204 36.9813V26.0174C22.6204 25.602 22.2837 25.2654 21.8685 25.2654H12.6191C12.2039 25.2654 11.8672 25.6021 11.8672 26.0174V36.9814C11.8672 37.3967 12.2039 37.7334 12.6192 37.7334Z" fill="white"/>
<path d="M18.6748 31.5074C18.2596 31.5074 17.9229 31.8441 17.9229 32.2594V33.7438C17.9229 34.1591 18.2596 34.4958 18.6748 34.4958C19.09 34.4958 19.4268 34.1591 19.4268 33.7438V32.2594C19.4269 31.8441 19.0901 31.5074 18.6748 31.5074Z" fill="white"/>
<path d="M38.3959 32.1592C38.3979 32.1592 38.3994 32.1602 38.4014 32.1602C38.4033 32.1602 38.4049 32.1592 38.4068 32.1592H42.4738C42.8892 32.1592 43.2258 31.8224 43.2258 31.4072V22.896C43.2258 22.4807 42.8891 22.144 42.4738 22.144H38.4142C38.4097 22.1439 38.406 22.1415 38.4015 22.1415C38.397 22.1415 38.3933 22.1439 38.3888 22.144H34.3232C33.908 22.144 33.5713 22.4807 33.5713 22.896V31.4072C33.5713 31.8224 33.908 32.1592 34.3232 32.1592H38.3959ZM41.7218 30.6552H39.1533V23.6478H41.7218V30.6552ZM35.075 23.6479H37.6493V30.6553H35.075V23.6479Z" fill="white"/>
<path d="M17.237 20.5742C19.392 20.5742 21.1449 18.8213 21.1449 16.6663C21.1449 14.5194 19.392 12.773 17.237 12.773C15.0901 12.773 13.3438 14.5193 13.3438 16.6663C13.3438 18.8213 15.09 20.5742 17.237 20.5742ZM17.237 14.277C18.5625 14.277 19.6409 15.3488 19.6409 16.6663C19.6409 17.9918 18.5625 19.0702 17.237 19.0702C15.9195 19.0702 14.8478 17.9918 14.8478 16.6663C14.8478 15.3489 15.9195 14.277 17.237 14.277Z" fill="#1E1E1E"/>
<path d="M1.68858 40.7391H10.4132L1.22882 47.8305C0.900205 48.0842 0.839561 48.5563 1.09337 48.8853C1.34718 49.2143 1.81964 49.2746 2.14825 49.0208L12.8743 40.7391H19.6628L10.4785 47.8305C10.1499 48.0842 10.0893 48.5563 10.3431 48.8853C10.5973 49.2145 11.07 49.2741 11.398 49.0208L22.124 40.7391H48.3117C48.7271 40.7391 49.0637 40.4023 49.0637 39.9871C49.0637 39.5719 48.727 39.2351 48.3117 39.2351H47.7147V16.5069C47.7403 16.3289 47.6377 16.0054 47.5061 15.8717L40.1742 8.42704C40.0328 8.28348 39.84 8.20272 39.6385 8.20272H33.2176V5.44628C34.4294 5.44608 35.4151 4.46034 35.4151 3.24833C35.4153 2.03632 34.4294 1.05048 33.2174 1.05048H28.7128C27.5007 1.05048 26.5149 2.03632 26.5149 3.24843C26.5149 4.46034 27.5006 5.44618 28.7124 5.44637V8.20282H25.7717C25.3564 8.20282 25.0197 8.53954 25.0197 8.95477C25.0197 9.37001 25.3565 9.70673 25.7717 9.70673C38.5423 9.71161 25.1572 9.70673 39.3239 9.70673L45.1744 15.6474H32.6526C32.2374 15.6474 31.9007 15.9841 31.9007 16.3993C31.9007 16.8145 32.2374 17.1513 32.6526 17.1513H46.2108V39.235H30.3934V16.4023C30.3934 16.1872 30.3012 15.9819 30.14 15.8394L17.7341 4.85516C17.6586 4.78837 17.4574 4.67596 17.2579 4.67001C17.0566 4.66385 16.87 4.7371 16.7364 4.85555L2.53312 17.4484C2.22247 17.7238 2.19386 18.1989 2.46964 18.5099C2.74396 18.8195 3.21944 18.8501 3.53116 18.5734L4.09474 18.0737V39.2351H1.68858C1.27335 39.2351 0.936631 39.5719 0.936631 39.9871C0.936631 40.4024 1.27335 40.7391 1.68858 40.7391ZM28.0188 3.24843C28.0188 2.86581 28.3301 2.55448 28.7127 2.55448H33.2173C33.5999 2.55448 33.9112 2.86581 33.9112 3.24843C33.9112 3.63104 33.5999 3.94237 33.2173 3.94237C33.1143 3.94237 28.5513 3.94237 28.7127 3.94237C28.3302 3.94237 28.0188 3.63104 28.0188 3.24843ZM30.2164 5.44637H31.7138V8.20282H30.2164V5.44637ZM17.2358 6.42274L28.8894 16.7409V39.2326H5.59874V16.7405C10.8859 12.0526 13.6748 9.57997 17.2358 6.42274Z" fill="white"/>
<path d="M24.2005 44.9014H21.8076C21.3924 44.9014 21.0557 45.2381 21.0557 45.6534C21.0557 46.0687 21.3924 46.4053 21.8076 46.4053H24.2005C24.6157 46.4053 24.9524 46.0686 24.9524 45.6534C24.9524 45.2381 24.6157 44.9014 24.2005 44.9014Z" fill="#1E1E1E"/>
<path d="M42.1716 45.6534C42.1716 45.2381 41.8349 44.9014 41.4196 44.9014H28.4482C28.033 44.9014 27.6963 45.2381 27.6963 45.6534C27.6963 46.0687 28.033 46.4053 28.4482 46.4053H41.4196C41.8349 46.4054 42.1716 46.0687 42.1716 45.6534Z" fill="#1E1E1E"/>
<path d="M22.9316 49.1266C22.9316 49.5419 23.2684 49.8786 23.6836 49.8786H34.934C35.3492 49.8786 35.6859 49.5419 35.6859 49.1266C35.6859 48.7113 35.3492 48.3747 34.934 48.3747H23.6837C23.2684 48.3746 22.9316 48.7113 22.9316 49.1266Z" fill="#1E1E1E"/>
<path d="M44.3957 42.8842C44.3957 42.4689 44.059 42.1322 43.6438 42.1322H34.9346C34.5192 42.1322 34.1826 42.4689 34.1826 42.8842C34.1826 43.2995 34.5193 43.6361 34.9346 43.6361H43.6438C44.0591 43.6361 44.3957 43.2994 44.3957 42.8842Z" fill="#1E1E1E"/>
</svg>
