<svg version="1.2" xmlns="http://www.w3.org/2000/svg" viewBox="0 0 31 30" width="31" height="30"><defs><clipPath clipPathUnits="userSpaceOnUse" id="cp1"><path d="m0.74 0h30v30h-30z"/></clipPath></defs><style>.a{fill:#f60}</style><filter id="f0"><feFlood flood-color="#58c4c2" flood-opacity="1" /><feBlend mode="normal" in2="SourceGraphic"/><feComposite in2="SourceAlpha" operator="in" /></filter><g clip-path="url(#cp1)" filter="url(#f0)"><path class="a" d="m24.5 18.6c-0.7-0.7-1.4-1-2.2-1-0.8 0-1.5 0.3-2.2 1l-2 2q-0.2-0.2-0.4-0.3-0.4-0.1-0.7-0.3c-1.8-1.2-3.5-2.8-5.2-4.8-0.8-1-1.3-1.8-1.7-2.7q0.8-0.7 1.5-1.4 0.2-0.3 0.5-0.5c1.3-1.4 1.3-3.1 0-4.4l-1.7-1.8q-0.3-0.3-0.6-0.6-0.6-0.6-1.2-1.1c-0.6-0.6-1.3-1-2.1-1-0.8 0-1.5 0.4-2.2 1q0 0 0 0l-2.1 2.1q-1.3 1.3-1.4 3c-0.2 1.8 0.4 3.6 0.8 4.7 1 2.8 2.6 5.3 4.8 8.1 2.8 3.3 6.2 5.9 10 7.7 1.4 0.7 3.4 1.5 5.5 1.7q0.2 0 0.4 0 2.2 0 3.7-1.6 0 0 0 0c0.3-0.4 0.7-0.8 1.1-1.1q0.4-0.4 0.8-0.9c0.7-0.6 1-1.4 1-2.2 0-0.7-0.3-1.5-1-2.1zm2.3 6.6q0 0 0 0-0.4 0.4-0.8 0.8-0.6 0.6-1.2 1.3c-0.6 0.7-1.4 1-2.4 1q-0.1 0-0.3 0c-1.9-0.1-3.6-0.9-4.9-1.5-3.6-1.7-6.7-4.2-9.4-7.3-2.1-2.6-3.6-5-4.5-7.6-0.6-1.6-0.8-2.8-0.7-4q0.1-1.1 0.9-1.9l2.1-2.1q0.5-0.5 1-0.5c0.4 0 0.7 0.3 0.9 0.5q0 0 0 0 0.6 0.5 1.2 1.1 0.3 0.3 0.6 0.6l1.7 1.8c0.7 0.6 0.7 1.3 0 1.9q-0.3 0.3-0.6 0.6c-0.5 0.5-1 1-1.5 1.5q-0.1 0-0.1 0.1c-0.5 0.5-0.4 1-0.3 1.4q0 0 0 0c0.5 1.1 1.1 2.2 2.1 3.4 1.7 2.1 3.6 3.8 5.6 5.1q0.4 0.2 0.8 0.4 0.3 0.2 0.6 0.4 0 0 0.1 0 0.3 0.2 0.6 0.2c0.5 0 0.8-0.4 1-0.5l2.1-2.1c0.2-0.2 0.6-0.5 1-0.5 0.4 0 0.7 0.2 0.9 0.5q0 0 0 0l3.5 3.5q1 0.9 0 1.9z"/><path class="a" d="m17 7.1c1.6 0.3 3.1 1.1 4.3 2.3 1.2 1.2 2 2.7 2.3 4.4 0.1 0.4 0.4 0.7 0.8 0.7q0.1 0 0.2 0c0.4-0.1 0.8-0.6 0.7-1-0.4-2-1.3-3.9-2.8-5.3-1.4-1.5-3.2-2.4-5.2-2.8-0.5 0-1 0.3-1 0.7-0.1 0.5 0.2 1 0.7 1z"/><path class="a" d="m30.7 13.2c-0.6-3.3-2.1-6.3-4.5-8.7-2.4-2.4-5.4-3.9-8.7-4.5-0.5-0.1-0.9 0.2-1 0.7-0.1 0.5 0.2 0.9 0.7 1 3 0.5 5.6 1.9 7.8 4 2.1 2.2 3.5 4.9 4 7.8 0.1 0.4 0.5 0.7 0.9 0.7q0 0 0.1 0c0.5-0.1 0.8-0.5 0.7-1z"/></g></svg>