<svg width="30" height="30" viewBox="0 0 30 30" fill="none" xmlns="http://www.w3.org/2000/svg">
<mask id="mask0_1325_65" style="mask-type:luminance" maskUnits="userSpaceOnUse" x="0" y="0" width="30" height="30">
<path d="M30 0.734375H0V29.7666H30V0.734375Z" fill="white"/>
</mask>
<g mask="url(#mask0_1325_65)">
<path d="M27.8199 13.741L28.9435 12.2721C29.0232 12.1677 29.051 12.0345 29.019 11.9084C28.9871 11.7821 28.8988 11.6765 28.778 11.6197L27.0755 10.8193L27.8025 9.12441C27.8538 9.00414 27.8475 8.86817 27.7849 8.75346C27.7223 8.63835 27.6102 8.55647 27.4788 8.52959L25.6287 8.15138L25.9157 6.34043C25.9363 6.21251 25.8966 6.08204 25.8076 5.98479C25.7188 5.88754 25.5928 5.84064 25.456 5.8377L23.5633 5.89486L23.3974 4.07025C23.3857 3.94102 23.315 3.82336 23.2044 3.74959C23.094 3.67581 22.9556 3.6541 22.8261 3.68818L21.0032 4.18326L20.391 2.44994C20.3476 2.32712 20.2498 2.22908 20.1244 2.18303C19.9982 2.13654 19.8589 2.1468 19.7417 2.21117L18.091 3.11513L17.067 1.5754C16.9945 1.46625 16.8753 1.39378 16.742 1.37796C16.6101 1.36344 16.4754 1.40483 16.3779 1.49437L15.0008 2.75302L13.6237 1.49425C13.5263 1.40473 13.393 1.36333 13.2595 1.37784C13.1262 1.39361 13.007 1.46613 12.9345 1.57529L11.9105 3.11502L10.26 2.21111C10.1423 2.14674 10.0031 2.13649 9.87727 2.18298C9.75194 2.22902 9.65408 2.32667 9.61067 2.44989L8.99842 4.1832L7.17539 3.68812C7.04584 3.65398 6.90774 3.67531 6.79711 3.74953C6.68655 3.8233 6.61582 3.94097 6.6041 4.07019L6.43823 5.8948L4.54553 5.83764C4.41662 5.8415 4.28268 5.88754 4.19391 5.98473C4.10491 6.08198 4.06524 6.21245 4.08575 6.34038L4.3728 8.15132L2.52264 8.52953C2.39133 8.55641 2.27918 8.63829 2.2166 8.7534C2.15403 8.86811 2.14764 9.00414 2.19897 9.12436L2.926 10.8193L1.22344 11.6197C1.10274 11.6764 1.01438 11.7821 0.982442 11.9083C0.950508 12.0345 0.978282 12.1681 1.05803 12.272L2.1818 13.741L0.725332 14.9132C0.622207 14.9959 0.5625 15.1191 0.5625 15.2488C0.5625 15.3784 0.622207 15.5016 0.725332 15.5843L2.18221 16.7565L1.05774 18.2297C0.977989 18.3337 0.95045 18.4672 0.982383 18.5934C1.01455 18.7192 1.10291 18.825 1.22338 18.8816L2.92571 19.682L2.19914 21.3731C2.14758 21.4929 2.15397 21.629 2.21655 21.7441C2.27889 21.8588 2.39104 21.9411 2.52258 21.9679L4.37274 22.3462L4.08569 24.1571C4.06518 24.2851 4.10485 24.4155 4.19385 24.5128C4.28262 24.61 4.41592 24.6607 4.54547 24.6599L6.43817 24.6027L6.60405 26.4273C6.61571 26.5566 6.68643 26.6742 6.79705 26.748C6.90762 26.8221 7.04602 26.8443 7.17534 26.8093L8.99907 26.3138L9.61506 28.0485C9.65865 28.1713 9.75651 28.269 9.88207 28.315C10.0068 28.3606 10.1478 28.35 10.2643 28.2865L11.9107 27.3824L12.9344 28.9222C13.0069 29.0314 13.1261 29.1038 13.2594 29.1196C13.3929 29.1363 13.5262 29.0928 13.6235 29.0032L15.0008 27.7446L16.3779 29.0033C16.4621 29.0805 16.5731 29.1227 16.6876 29.1227C16.846 29.1227 16.9865 29.0437 17.067 28.9224L18.0908 27.3826L19.7372 28.2866C19.8535 28.3506 19.9938 28.3612 20.1194 28.3152C20.2447 28.2692 20.3425 28.1715 20.3861 28.0487L21.0024 26.3174L22.8267 26.8095C22.9556 26.8449 23.0944 26.8219 23.2048 26.7482C23.3149 26.6743 23.3857 26.5567 23.3973 26.4275L23.5632 24.6037L25.455 24.6638C25.5863 24.6762 25.7183 24.6144 25.8073 24.5176C25.8963 24.4204 25.9362 24.2899 25.9157 24.1616L25.6284 22.3498L27.4797 21.9677C27.6107 21.9408 27.7227 21.8586 27.785 21.7439C27.8473 21.6287 27.8537 21.4931 27.8022 21.3733L27.0756 19.6822L28.7779 18.8818C28.8985 18.8251 28.9868 18.7194 29.0189 18.5936C29.0509 18.4674 29.0233 18.3338 28.9436 18.2299L27.8193 16.7566L29.276 15.5845C29.3792 15.5017 29.4389 15.3786 29.4389 15.2489C29.4389 15.1193 29.3792 14.9961 29.276 14.9134L27.8199 13.741ZM26.9151 16.349C26.7311 16.4969 26.6985 16.7579 26.8406 16.9438L27.8955 18.3258L26.2984 19.0767C26.0834 19.1777 25.9871 19.4233 26.079 19.6369L26.7606 21.2231L25.0239 21.5818C24.7902 21.63 24.6357 21.8461 24.672 22.0747L24.9414 23.7739L23.166 23.7176C22.9344 23.7027 22.7227 23.8843 22.7018 24.1154L22.5461 25.8275L20.8354 25.3657C20.6056 25.3026 20.3652 25.4249 20.2877 25.6441L19.7098 27.2674L18.1648 26.4193C17.9569 26.3059 17.6927 26.3685 17.563 26.563L16.6024 28.0072L15.3106 26.8265C15.2238 26.7468 15.1123 26.707 15.0008 26.707C14.8894 26.707 14.7779 26.7467 14.6911 26.8265L13.3992 28.0072L12.4387 26.563C12.3092 26.3685 12.0457 26.3059 11.8368 26.4193L10.292 27.2675L9.71414 25.6403C9.63615 25.4215 9.39428 25.2996 9.16559 25.3619L7.45553 25.8262L7.29979 24.1154C7.27887 23.8848 7.07836 23.7257 6.83649 23.7171L5.06016 23.7704L5.32957 22.0704C5.3659 21.8414 5.21104 21.6247 4.97684 21.5769L3.24147 21.2222L3.92268 19.6368C4.01455 19.4232 3.91828 19.1775 3.70325 19.0765L2.10645 18.3256L3.16131 16.9437C3.3034 16.7578 3.27082 16.4968 3.08684 16.3488L1.71985 15.2488L3.08684 14.1487C3.271 14.0007 3.3034 13.7393 3.16108 13.5534L2.10692 12.1752L3.70325 11.4247C3.91805 11.3237 4.01432 11.0781 3.92291 10.8645L3.24106 9.27525L4.9769 8.92045C5.2111 8.87271 5.36596 8.6561 5.32963 8.42707L5.06022 6.72698L6.83655 6.78028C7.07825 6.78329 7.27893 6.61227 7.29985 6.382L7.45559 4.67125L9.16565 5.1356C9.39475 5.1991 9.63692 5.07634 9.71444 4.85628L10.2888 3.22996L11.8371 4.07808C12.0458 4.19278 12.3095 4.12882 12.4388 3.93439L13.3993 2.49015L14.6912 3.67088C14.8648 3.83033 15.1371 3.83033 15.3107 3.67088L16.6026 2.49015L17.5631 3.93439C17.6922 4.12882 17.9561 4.19239 18.1647 4.07808L19.7131 3.22996L20.2874 4.85628C20.3647 5.07589 20.6071 5.1978 20.8362 5.1356L22.5463 4.67125L22.702 6.382C22.7229 6.61227 22.934 6.78369 23.1653 6.78028L24.9416 6.72698L24.6722 8.42707C24.6359 8.65604 24.7907 8.87265 25.0249 8.92045L26.7608 9.27525L26.0789 10.8645C25.9875 11.0781 26.0838 11.3237 26.2986 11.4247L27.8949 12.1752L26.8409 13.5534C26.6986 13.7393 26.731 14.0007 26.9152 14.1487L28.2822 15.2488L26.9151 16.349Z" fill="#FF6600"/>
<path d="M14.997 11.1953C12.6853 11.1953 10.8047 13.0139 10.8047 15.2496C10.8047 17.4865 12.6853 19.3063 14.997 19.3063C17.3087 19.3063 19.1895 17.4865 19.1895 15.2496C19.1895 13.0139 17.3087 11.1953 14.997 11.1953ZM14.997 18.4331C13.183 18.4331 11.7071 17.0051 11.7071 15.2496C11.7071 13.4957 13.183 12.0686 14.997 12.0686C16.8112 12.0686 18.2871 13.4957 18.2871 15.2496C18.2871 17.0051 16.8112 18.4331 14.997 18.4331Z" fill="white"/>
<path d="M15.0035 9.76997C15.8195 9.76997 16.4835 9.12739 16.4835 8.33769C16.4835 7.54842 15.8195 6.90625 15.0035 6.90625C14.1874 6.90625 13.5234 7.54842 13.5234 8.33769C13.5234 9.12733 14.1874 9.76997 15.0035 9.76997ZM15.0035 7.77949C15.322 7.77949 15.5811 8.02978 15.5811 8.33769C15.5811 8.64598 15.322 8.89672 15.0035 8.89672C14.6849 8.89672 14.4258 8.64598 14.4258 8.33769C14.4258 8.02978 14.6849 7.77949 15.0035 7.77949Z" fill="#FF6600"/>
<path d="M15.0035 20.7266C14.1874 20.7266 13.5234 21.3688 13.5234 22.158C13.5234 22.9477 14.1874 23.5902 15.0035 23.5902C15.8195 23.5902 16.4835 22.9477 16.4835 22.158C16.4835 21.3688 15.8195 20.7266 15.0035 20.7266ZM15.0035 22.717C14.6849 22.717 14.4258 22.4663 14.4258 22.158C14.4258 21.8501 14.6849 21.5998 15.0035 21.5998C15.322 21.5998 15.5811 21.8501 15.5811 22.158C15.5811 22.4663 15.322 22.717 15.0035 22.717Z" fill="#FF6600"/>
<path d="M22.1441 13.8203C21.3281 13.8203 20.6641 14.4628 20.6641 15.2526C20.6641 16.0422 21.3281 16.6848 22.1441 16.6848C22.9597 16.6848 23.6232 16.0422 23.6232 15.2526C23.6232 14.4628 22.9597 13.8203 22.1441 13.8203ZM22.1441 15.8116C21.8255 15.8116 21.5664 15.5609 21.5664 15.2526C21.5664 14.9442 21.8255 14.6935 22.1441 14.6935C22.4622 14.6935 22.7209 14.9442 22.7209 15.2526C22.7208 15.5609 22.4622 15.8116 22.1441 15.8116Z" fill="#FF6600"/>
<path d="M7.86283 13.8203C7.04679 13.8203 6.38281 14.4628 6.38281 15.2526C6.38281 16.0422 7.04679 16.6848 7.86283 16.6848C8.67839 16.6848 9.34197 16.0422 9.34197 15.2526C9.34197 14.4628 8.67839 13.8203 7.86283 13.8203ZM7.86283 15.8116C7.54425 15.8116 7.28515 15.5609 7.28515 15.2526C7.28515 14.9442 7.54425 14.6935 7.86283 14.6935C8.18093 14.6935 8.43962 14.9442 8.43962 15.2526C8.43962 15.5609 8.18093 15.8116 7.86283 15.8116Z" fill="#FF6600"/>
</g>
</svg>
