<svg width="51" height="51" viewBox="0 0 51 51" fill="none" xmlns="http://www.w3.org/2000/svg">
<path d="M38.1493 3.68262H8.65654C7.59102 3.68262 6.72373 4.55283 6.72373 5.62275V35.4012C6.72373 35.8168 7.06006 36.1531 7.47568 36.1531C7.89131 36.1531 8.22764 35.8168 8.22764 35.4012V5.62275C8.22764 5.38184 8.42002 5.18652 8.65654 5.18652H38.1493C38.3901 5.18652 38.5855 5.38184 38.5855 5.62275V42.5149C38.5855 44.4903 36.981 46.1236 35.0092 46.1552C35.0048 46.1553 35.0012 46.1577 34.9968 46.1579C33.0219 46.1445 31.3836 44.5471 31.3836 42.5172V39.5951C31.3836 38.5281 30.5148 37.6594 29.4471 37.6594H3.63203C2.56504 37.6594 1.69629 38.5281 1.69629 39.5951V42.5172C1.69629 45.3388 3.97656 47.6644 6.83828 47.6644H35.0217C35.0332 47.6644 35.0429 47.6583 35.0543 47.6578C37.8326 47.6013 40.0895 45.2998 40.0895 42.515V5.62275C40.0895 4.55283 39.2192 3.68262 38.1493 3.68262ZM6.83828 46.1604C4.8416 46.1604 3.20029 44.5439 3.20029 42.5172V39.5951C3.20029 39.3572 3.39414 39.1633 3.63213 39.1633H29.4472C29.6858 39.1633 29.8797 39.3571 29.8797 39.5951V42.5172C29.8797 43.8927 30.415 45.1858 31.3866 46.1574C31.3874 46.1589 31.3889 46.1597 31.3896 46.1604H6.83828Z" fill="#FF6600"/>
<path d="M14.0947 11.79H33.3247C33.7403 11.79 34.0767 11.4537 34.0767 11.0381C34.0767 10.6225 33.7403 10.2861 33.3247 10.2861H14.0947C13.6791 10.2861 13.3428 10.6225 13.3428 11.0381C13.3427 11.4537 13.679 11.79 14.0947 11.79Z" fill="#FF6600"/>
<path d="M14.0947 17.252H33.3247C33.7403 17.252 34.0767 16.9156 34.0767 16.5C34.0767 16.0844 33.7403 15.748 33.3247 15.748H14.0947C13.6791 15.748 13.3428 16.0844 13.3428 16.5C13.3427 16.9156 13.679 17.252 14.0947 17.252Z" fill="#FF6600"/>
<path d="M14.0947 22.7144H33.3247C33.7403 22.7144 34.0767 22.378 34.0767 21.9624C34.0767 21.5468 33.7403 21.2104 33.3247 21.2104H14.0947C13.6791 21.2104 13.3428 21.5468 13.3428 21.9624C13.3427 22.378 13.679 22.7144 14.0947 22.7144Z" fill="#FF6600"/>
<path d="M14.0947 28.1763H20.6496C21.0652 28.1763 21.4016 27.8399 21.4016 27.4243C21.4016 27.0087 21.0652 26.6724 20.6496 26.6724H14.0947C13.6791 26.6724 13.3428 27.0087 13.3428 27.4243C13.3427 27.8399 13.679 28.1763 14.0947 28.1763Z" fill="#FF6600"/>
<path d="M31.2445 29.7486C31.0617 30.4022 30.8736 31.0785 30.4675 31.5324C29.7139 32.3753 29.2129 31.8203 28.8615 31.3759C27.6536 29.861 26.2871 30.0665 25.3498 31.257C25.041 31.6484 24.7174 32.2931 24.4685 32.5906C24.0654 33.0686 23.4051 33.3301 22.7846 33.2405C22.1641 33.1568 21.5942 32.7345 21.3336 32.1661C21.1602 31.7886 20.7123 31.6241 20.3363 31.796C19.9588 31.9693 19.7928 32.4158 19.9662 32.7932C20.4442 33.8345 21.4466 34.577 22.5827 34.7312C23.7108 34.8835 24.8773 34.4395 25.6193 33.5585C26.0458 33.0503 26.217 32.5851 26.5306 32.1881C27.0719 31.502 27.3121 31.8451 27.6836 32.3123C28.9571 33.9142 30.5786 33.6664 31.5896 32.534C32.2285 31.8195 32.4855 30.895 32.6926 30.1525C32.8043 29.7523 32.5708 29.3374 32.1705 29.2264C31.7703 29.1126 31.3561 29.3483 31.2445 29.7486Z" fill="#1E1E1E"/>
<path d="M49.6513 23.1851L47.3131 20.3475V19.5742C47.3131 19.1586 46.9768 18.8223 46.5611 18.8223C46.1455 18.8223 45.8092 19.1586 45.8092 19.5742V20.3465L43.4673 23.1844C43.3575 23.3176 43.2947 23.5225 43.2947 23.6617C43.2946 26.939 43.2942 39.2897 43.2939 45.7264C43.2939 46.7948 44.1635 47.6644 45.2319 47.6644H47.8837C48.9521 47.6644 49.8217 46.7948 49.8217 45.7264C49.8219 40.3041 49.8222 29.9964 49.8225 23.6617C49.8224 23.5058 49.7616 23.3189 49.6513 23.1851ZM46.5604 21.7993L47.4757 22.9097H45.6443L46.5604 21.7993ZM44.7986 24.4151H48.3185L48.3177 42.5884H44.7979L44.7986 24.4151ZM48.3177 45.7263C48.3177 45.9656 48.123 46.1603 47.8837 46.1603H45.2319C44.9926 46.1603 44.7979 45.9656 44.7979 45.7263V44.0924H48.3178V45.7263H48.3177Z" fill="#FF6600"/>
</svg>
