<svg width="150" height="151" viewBox="0 0 150 151" fill="none" xmlns="http://www.w3.org/2000/svg">
<circle cx="75" cy="75.0703" r="75" fill="white"/>
<path d="M77.3537 21.523L76.2031 12.8438L78.102 13.0494L78.8704 19.7902L81.0758 13.3714L83.333 13.6158L84.0894 20.3553L86.247 13.9313L88.0504 14.1266L85.0926 22.361L82.7279 22.1049L81.9402 15.5432L79.79 21.7868L77.3537 21.523Z" fill="#1E1E1E"/>
<path d="M89.1949 23.575C88.9179 23.495 88.6586 23.3825 88.417 23.2377C88.1854 23.0874 87.9918 22.9064 87.8362 22.6948C87.6806 22.4831 87.5785 22.2452 87.5298 21.981C87.481 21.7169 87.5011 21.4309 87.5901 21.1232C87.7101 20.7077 87.8903 20.4013 88.1307 20.204C88.3733 19.999 88.6559 19.8723 88.9783 19.8237C89.3008 19.7752 89.6533 19.7812 90.036 19.8417C90.4263 19.9045 90.8215 19.9937 91.2216 20.1093L92.0987 20.3627C92.1631 20.1396 92.1775 19.9312 92.1418 19.7375C92.116 19.5383 92.0356 19.3692 91.9007 19.2302C91.7681 19.0835 91.5748 18.9734 91.3209 18.9001C91.1593 18.8534 90.9949 18.8309 90.8277 18.8326C90.6704 18.8288 90.5307 18.851 90.4084 18.899C90.2862 18.947 90.1919 19.0282 90.1255 19.1424L88.4868 18.6689C88.6307 18.3437 88.8218 18.0863 89.06 17.8967C89.3004 17.6994 89.5698 17.5605 89.8681 17.48C90.1665 17.3995 90.4757 17.3679 90.7957 17.3854C91.1257 17.3974 91.4523 17.4501 91.7754 17.5434C92.6602 17.7991 93.2408 18.2419 93.5172 18.872C93.7959 19.4943 93.8018 20.2671 93.5351 21.1904L92.5881 24.4679L91.1339 24.0477L91.3376 23.2563C91.0675 23.47 90.7915 23.6028 90.5097 23.6548C90.2357 23.709 89.9826 23.7192 89.7506 23.6856C89.5186 23.6519 89.3334 23.615 89.1949 23.575ZM89.9343 22.4007C90.2036 22.4785 90.4653 22.4958 90.7196 22.4525C90.9738 22.4093 91.193 22.3142 91.3772 22.1674C91.5613 22.0205 91.6867 21.8317 91.7534 21.6009L91.7968 21.4509L90.6889 21.1307C90.5273 21.0841 90.3674 21.0462 90.209 21.0171C90.0584 20.9903 89.9149 20.9821 89.7784 20.9927C89.6519 20.9978 89.5407 21.0366 89.4448 21.1089C89.3489 21.1812 89.2787 21.2943 89.2342 21.4482C89.1898 21.602 89.1904 21.7439 89.2362 21.8739C89.292 21.9984 89.3813 22.1075 89.5042 22.2014C89.6294 22.2876 89.7727 22.354 89.9343 22.4007Z" fill="#1E1E1E"/>
<path d="M96.556 26.0739C96.0658 25.8762 95.6776 25.6505 95.3913 25.3968C95.1125 25.1462 94.9446 24.8453 94.8876 24.4941C94.841 24.1386 94.9181 23.712 95.1189 23.2144L96.1345 20.6967L95.2655 20.3461L95.8273 18.9536L96.6962 19.3041L97.3299 17.7333L98.8895 18.3625L98.2559 19.9333L99.537 20.4501L98.9753 21.8426L97.6941 21.3258L96.7684 23.6207C96.6695 23.8658 96.6362 24.0769 96.6684 24.254C96.7006 24.431 96.8727 24.5825 97.1846 24.7083L97.6748 24.906L97.113 26.2986L96.556 26.0739Z" fill="#1E1E1E"/>
<path d="M100.087 27.9068C99.514 27.6032 99.084 27.226 98.7972 26.7751C98.5174 26.3279 98.3838 25.8358 98.3963 25.2987C98.4126 24.7546 98.5744 24.1923 98.8817 23.612C99.1927 23.0245 99.5722 22.5731 100.02 22.2575C100.472 21.9349 100.967 21.7619 101.505 21.7386C102.05 21.7191 102.616 21.8648 103.203 22.1759C103.656 22.4157 104.017 22.7107 104.284 23.0609C104.552 23.411 104.711 23.7945 104.763 24.2113C104.821 24.6318 104.75 25.0743 104.549 25.5389L103.095 24.7688C103.162 24.4874 103.134 24.2413 103.01 24.0307C102.893 23.8237 102.71 23.6547 102.463 23.5235C102.144 23.3549 101.848 23.2978 101.575 23.3524C101.308 23.4106 101.069 23.5376 100.856 23.7333C100.651 23.9327 100.485 24.1527 100.357 24.3933C100.219 24.6552 100.13 24.9254 100.091 25.2039C100.056 25.4754 100.091 25.7341 100.197 25.9802C100.313 26.2229 100.523 26.4249 100.827 26.586C101.082 26.7209 101.335 26.7823 101.586 26.7703C101.841 26.7511 102.062 26.6327 102.25 26.415L103.736 27.202C103.457 27.6433 103.117 27.9524 102.715 28.1293C102.313 28.3062 101.884 28.3732 101.426 28.3303C100.98 28.2841 100.533 28.1429 100.087 27.9068Z" fill="#1E1E1E"/>
<path d="M103.854 29.9157L108.805 23L110.172 23.9789L108.48 26.3427C108.756 26.2741 109.02 26.2563 109.272 26.2891C109.531 26.3266 109.769 26.3934 109.985 26.4895C110.213 26.5838 110.409 26.6892 110.572 26.8057C111.053 27.1506 111.354 27.5285 111.474 27.9391C111.594 28.3498 111.581 28.7794 111.438 29.228C111.294 29.6766 111.066 30.119 110.753 30.5553L108.719 33.3978L107.351 32.4189L109.246 29.7718C109.358 29.6155 109.454 29.4476 109.533 29.268C109.619 29.093 109.672 28.9148 109.694 28.7333C109.72 28.5453 109.696 28.3656 109.622 28.1942C109.552 28.0163 109.41 27.8505 109.195 27.6966C108.993 27.5521 108.79 27.4709 108.586 27.453C108.383 27.4351 108.184 27.4652 107.99 27.5432C107.808 27.6193 107.636 27.7281 107.476 27.8694C107.316 28.0108 107.175 28.1661 107.054 28.3354L105.222 30.8946L103.854 29.9157Z" fill="#1E1E1E"/>
<path d="M115.015 39.6383C114.434 38.9872 114.07 38.303 113.923 37.5857C113.782 36.8744 113.842 36.1772 114.101 35.4943C114.373 34.812 114.825 34.1882 115.458 33.6229C116.103 33.0468 116.783 32.6656 117.497 32.4792C118.216 32.2987 118.921 32.3244 119.611 32.5564C120.307 32.783 120.946 33.2218 121.527 33.873C122.103 34.5182 122.465 35.1938 122.612 35.8997C122.759 36.6057 122.703 37.3002 122.443 37.9831C122.188 38.672 121.738 39.3045 121.093 39.8805C120.46 40.4458 119.781 40.8214 119.056 41.0072C118.342 41.1937 117.634 41.1762 116.932 40.955C116.241 40.7344 115.602 40.2955 115.015 39.6383ZM116.232 38.5842C116.616 39.0143 117.027 39.2758 117.464 39.3686C117.901 39.4615 118.328 39.4289 118.746 39.2711C119.168 39.1192 119.55 38.8912 119.89 38.5872C120.141 38.3632 120.357 38.106 120.538 37.8157C120.724 37.5313 120.852 37.2294 120.921 36.91C120.99 36.5906 120.978 36.2638 120.883 35.9295C120.795 35.5898 120.604 35.2557 120.31 34.9271C119.932 34.503 119.524 34.2445 119.087 34.1517C118.655 34.0535 118.226 34.0774 117.798 34.2233C117.375 34.3752 116.988 34.6085 116.635 34.9232C116.283 35.2378 116.007 35.5966 115.808 35.9994C115.615 36.4081 115.54 36.8349 115.583 37.2798C115.637 37.7253 115.853 38.1601 116.232 38.5842Z" fill="#1E1E1E"/>
<path d="M120.083 46.2838C119.58 45.503 119.39 44.7726 119.514 44.0925C119.649 43.4149 120.12 42.8157 120.928 42.295L123.906 40.375L124.817 41.7885L121.94 43.6435C121.698 43.7997 121.504 43.9722 121.359 44.161C121.225 44.3522 121.152 44.5565 121.139 44.774C121.132 44.9983 121.206 45.2315 121.362 45.4739C121.531 45.7364 121.718 45.9014 121.924 45.969C122.13 46.0366 122.344 46.0366 122.567 45.9689C122.797 45.897 123.02 45.7915 123.235 45.6527L126.113 43.7978L127.017 45.2012L124.039 47.1212C123.197 47.6636 122.448 47.8464 121.791 47.6697C121.138 47.4997 120.569 47.0377 120.083 46.2838Z" fill="#1E1E1E"/>
<path d="M122.427 50.0415L128.098 47.2277L128.771 48.5836L128.141 49.0168C128.428 49.0535 128.669 49.1348 128.866 49.2608C129.07 49.3832 129.237 49.5324 129.369 49.7083C129.509 49.8806 129.628 50.0672 129.728 50.2681C129.774 50.3613 129.813 50.4492 129.845 50.5317C129.884 50.6106 129.913 50.668 129.93 50.7038L128.478 51.4246L128.302 51.0695C128.134 50.7323 127.931 50.4667 127.692 50.2725C127.452 50.0784 127.177 49.9737 126.865 49.9584C126.557 49.9503 126.213 50.0406 125.833 50.2292L123.175 51.548L122.427 50.0415Z" fill="#1E1E1E"/>
<path d="M126.495 59.9818L133.859 54.7188L134.361 56.5243L128.204 60.7038L135.622 61.0614L136.12 62.8554L127.099 62.1577L126.495 59.9818Z" fill="#1E1E1E"/>
<path d="M127.873 65.7945L134.12 64.7699L134.392 66.4294L128.145 67.4541L127.873 65.7945ZM134.884 65.4966C134.834 65.1884 134.884 64.9245 135.034 64.7051C135.193 64.4843 135.418 64.3499 135.711 64.302C136.019 64.2514 136.284 64.3094 136.506 64.4758C136.728 64.6423 136.864 64.8757 136.913 65.176C136.959 65.4526 136.903 65.7052 136.745 65.9339C136.597 66.1692 136.369 66.3121 136.061 66.3627C135.761 66.4119 135.5 66.3533 135.277 66.1868C135.065 66.027 134.934 65.7969 134.884 65.4966Z" fill="#1E1E1E"/>
<path d="M128.494 71.4392C128.453 70.7999 128.563 70.2592 128.823 69.8171C129.092 69.3825 129.464 69.0456 129.938 68.8065C130.42 68.5668 130.961 68.4277 131.56 68.3892C132.192 68.3486 132.758 68.4245 133.26 68.6169C133.77 68.8088 134.179 69.1155 134.487 69.5371C134.795 69.9587 134.97 70.4971 135.012 71.1525C135.026 71.3762 135.013 71.5978 134.971 71.8172C134.937 72.0441 134.874 72.2527 134.782 72.4432C134.699 72.6412 134.581 72.8133 134.43 72.9594L137.187 72.7821L137.295 74.4604L128.808 75.0062L128.703 73.3759L129.409 73.3064C129.216 73.1744 129.053 73.0083 128.919 72.8082C128.795 72.6156 128.697 72.4052 128.626 72.1771C128.555 71.9489 128.511 71.703 128.494 71.4392ZM130.026 71.6777C130.049 72.0374 130.152 72.3237 130.334 72.5367C130.517 72.7576 130.744 72.9156 131.015 73.0105C131.286 73.1054 131.573 73.1431 131.877 73.1236C132.188 73.1036 132.469 73.0294 132.717 72.901C132.974 72.7802 133.171 72.599 133.308 72.3575C133.453 72.1234 133.514 71.8226 133.491 71.4549C133.467 71.0873 133.364 70.797 133.182 70.584C133 70.3711 132.77 70.2253 132.492 70.1469C132.222 70.076 131.936 70.0503 131.632 70.0698C131.408 70.0842 131.194 70.122 130.989 70.1833C130.793 70.2521 130.619 70.3516 130.467 70.4818C130.315 70.6119 130.197 70.776 130.113 70.974C130.038 71.1714 130.009 71.406 130.026 71.6777Z" fill="#1E1E1E"/>
<path d="M128.475 79.4112C128.524 78.7483 128.697 78.195 128.995 77.7513C129.293 77.3075 129.69 76.9796 130.188 76.7675C130.693 76.5559 131.27 76.4741 131.916 76.5219C132.571 76.5704 133.133 76.7404 133.601 77.032C134.077 77.3242 134.438 77.7123 134.684 78.1962C134.928 78.688 135.027 79.2535 134.98 79.8924C134.944 80.3716 134.833 80.785 134.647 81.1325C134.46 81.4881 134.214 81.7791 133.908 82.0054C133.601 82.2397 133.252 82.4025 132.86 82.494C132.475 82.594 132.063 82.6238 131.625 82.5833C131.513 82.575 131.405 82.5631 131.302 82.5474C131.199 82.5317 131.096 82.5081 130.994 82.4764L131.314 78.1517C131.073 78.1579 130.848 78.2096 130.64 78.3066C130.432 78.4037 130.261 78.5476 130.126 78.7384C129.999 78.9378 129.924 79.1892 129.902 79.4927C129.887 79.6924 129.894 79.8775 129.921 80.0482C129.957 80.2195 130.018 80.3685 130.105 80.4954C130.192 80.6223 130.297 80.7144 130.422 80.7718L130.299 82.425C129.836 82.2864 129.463 82.062 129.181 81.7521C128.898 81.4501 128.699 81.0941 128.585 80.6841C128.479 80.2748 128.442 79.8505 128.475 79.4112ZM132.485 78.2745L132.283 81.0179C132.499 81.0258 132.703 80.9847 132.894 80.8945C133.093 80.8128 133.255 80.6763 133.382 80.4849C133.516 80.3021 133.594 80.0589 133.617 79.7554C133.639 79.4519 133.598 79.1919 133.494 78.9754C133.389 78.7669 133.244 78.6036 133.06 78.4856C132.883 78.3762 132.692 78.3058 132.485 78.2745Z" fill="#1E1E1E"/>
<path d="M127.447 86.5944C127.58 85.9678 127.822 85.4462 128.173 85.0296C128.532 84.6147 128.973 84.3281 129.499 84.1697C130.031 84.013 130.623 84.0039 131.273 84.1424C131.939 84.2842 132.483 84.5352 132.906 84.8955C133.335 85.2653 133.628 85.7126 133.787 86.2377C133.945 86.7627 133.959 87.3307 133.829 87.9416C133.695 88.5682 133.446 89.0842 133.082 89.4896C132.717 89.895 132.268 90.1761 131.735 90.3328C131.202 90.4895 130.603 90.4969 129.937 90.3551C129.287 90.2166 128.751 89.9673 128.328 89.607C127.911 89.2563 127.627 88.8231 127.475 88.3076C127.321 87.7999 127.312 87.2289 127.447 86.5944ZM128.956 86.8913C128.879 87.2516 128.895 87.558 129.005 87.8107C129.115 88.0634 129.286 88.2635 129.516 88.4108C129.753 88.5677 130.012 88.6762 130.294 88.7363C130.576 88.7963 130.857 88.803 131.138 88.7562C131.416 88.7173 131.661 88.6057 131.872 88.4214C132.09 88.2466 132.237 87.9752 132.316 87.607C132.391 87.2546 132.366 86.9503 132.24 86.6943C132.122 86.4399 131.945 86.2343 131.708 86.0774C131.47 85.9284 131.21 85.8238 130.928 85.7638C130.638 85.702 130.358 85.6915 130.087 85.7321C129.815 85.7805 129.577 85.8977 129.373 86.0836C129.17 86.2696 129.031 86.5388 128.956 86.8913Z" fill="#1E1E1E"/>
<path d="M129.11 97.5566L130.331 96.8374L130.817 97.933L131.5 96.9448L132.568 97.8709L131.674 98.6781L132.825 99.0126L132.263 100.327L131.226 99.7275L131.265 100.92L129.853 100.8L130.095 99.6232L128.972 100.019L128.647 98.6392L129.835 98.5194L129.11 97.5566Z" fill="#1E1E1E"/>
<path d="M120.311 104.423L128.391 107.797L127.257 109.334L121.046 106.606L125.483 111.742L124.136 113.57L117.931 110.832L122.396 115.929L121.32 117.389L115.693 110.689L117.104 108.775L123.171 111.396L118.857 106.396L120.311 104.423Z" fill="#1E1E1E"/>
<path d="M112.572 113.638C112.78 113.439 113.008 113.271 113.254 113.135C113.501 113.01 113.754 112.933 114.015 112.905C114.277 112.877 114.534 112.908 114.787 112.998C115.04 113.089 115.277 113.25 115.498 113.481C115.797 113.794 115.972 114.103 116.022 114.41C116.077 114.723 116.045 115.031 115.925 115.334C115.805 115.637 115.623 115.939 115.378 116.24C115.128 116.546 114.853 116.843 114.552 117.131L113.892 117.762C114.053 117.93 114.226 118.047 114.411 118.113C114.597 118.191 114.783 118.206 114.971 118.16C115.165 118.118 115.357 118.007 115.548 117.824C115.669 117.707 115.771 117.577 115.854 117.431C115.936 117.297 115.987 117.165 116.007 117.035C116.027 116.905 116.004 116.783 115.938 116.668L117.171 115.489C117.38 115.777 117.506 116.071 117.551 116.372C117.601 116.679 117.585 116.982 117.505 117.28C117.425 117.579 117.297 117.862 117.121 118.13C116.945 118.409 116.736 118.665 116.493 118.898C115.828 119.535 115.153 119.815 114.469 119.737C113.791 119.666 113.12 119.283 112.455 118.589L110.096 116.124L111.19 115.078L111.772 115.651C111.723 115.31 111.746 115.005 111.843 114.735C111.934 114.471 112.052 114.247 112.197 114.063C112.343 113.879 112.468 113.738 112.572 113.638ZM113.216 114.867C113.014 115.061 112.868 115.279 112.777 115.52C112.687 115.762 112.659 115.999 112.694 116.232C112.728 116.465 112.829 116.668 112.995 116.842L113.103 116.955L113.936 116.157C114.057 116.041 114.17 115.922 114.275 115.799C114.374 115.683 114.453 115.563 114.512 115.439C114.571 115.327 114.594 115.212 114.579 115.092C114.565 114.973 114.502 114.856 114.392 114.74C114.281 114.624 114.158 114.554 114.023 114.528C113.887 114.514 113.748 114.536 113.605 114.595C113.467 114.66 113.338 114.751 113.216 114.867Z" fill="#1E1E1E"/>
<path d="M106.713 118.758C107.13 118.433 107.519 118.21 107.882 118.089C108.239 117.974 108.584 117.979 108.916 118.106C109.247 118.244 109.577 118.524 109.907 118.947L111.577 121.088L112.316 120.512L113.24 121.696L112.501 122.272L113.542 123.608L112.216 124.642L111.175 123.306L110.085 124.156L109.162 122.972L110.251 122.122L108.729 120.171C108.567 119.963 108.401 119.828 108.231 119.767C108.062 119.706 107.845 119.779 107.579 119.986L107.163 120.311L106.239 119.127L106.713 118.758Z" fill="#1E1E1E"/>
<path d="M103.368 120.895C103.917 120.551 104.459 120.367 104.993 120.344C105.52 120.326 106.013 120.456 106.472 120.736C106.935 121.022 107.341 121.444 107.69 122C108.043 122.563 108.244 123.118 108.293 123.664C108.346 124.216 108.248 124.731 107.999 125.209C107.743 125.69 107.334 126.107 106.771 126.46C106.336 126.733 105.901 126.897 105.464 126.954C105.026 127.01 104.615 126.956 104.228 126.792C103.835 126.632 103.487 126.349 103.186 125.943L104.58 125.069C104.79 125.268 105.017 125.367 105.262 125.365C105.499 125.367 105.737 125.294 105.974 125.145C106.28 124.953 106.477 124.726 106.567 124.462C106.65 124.202 106.66 123.931 106.597 123.649C106.527 123.372 106.419 123.118 106.275 122.887C106.117 122.636 105.928 122.424 105.706 122.251C105.488 122.085 105.247 121.986 104.981 121.954C104.713 121.933 104.433 122.014 104.141 122.197C103.897 122.35 103.717 122.538 103.602 122.762C103.491 122.992 103.483 123.243 103.577 123.514L102.152 124.407C101.91 123.945 101.812 123.496 101.86 123.059C101.908 122.623 102.065 122.217 102.331 121.843C102.595 121.479 102.94 121.163 103.368 120.895Z" fill="#1E1E1E"/>
<path d="M99.7281 123.158L103.234 130.906L101.702 131.6L100.504 128.951C100.425 129.224 100.308 129.461 100.154 129.663C99.9915 129.868 99.8146 130.041 99.6228 130.18C99.427 130.33 99.2379 130.447 99.0555 130.529C98.5156 130.774 98.0379 130.845 97.6225 130.743C97.2071 130.641 96.8413 130.415 96.5251 130.066C96.2089 129.717 95.9402 129.298 95.719 128.809L94.2779 125.624L95.8101 124.931L97.1521 127.897C97.2314 128.072 97.3289 128.238 97.4446 128.397C97.553 128.559 97.6804 128.695 97.8266 128.804C97.9762 128.921 98.1438 128.99 98.3293 129.012C98.5182 129.041 98.733 129.001 98.9738 128.892C99.2 128.789 99.3718 128.655 99.4894 128.487C99.607 128.32 99.6806 128.132 99.7101 127.926C99.7356 127.73 99.7274 127.527 99.6853 127.317C99.6432 127.108 99.5793 126.908 99.4934 126.718L98.1959 123.851L99.7281 123.158Z" fill="#1E1E1E"/>
<path d="M85.701 127.933C86.5563 127.759 87.3308 127.789 88.0243 128.023C88.71 128.26 89.2824 128.662 89.7416 129.23C90.1945 129.808 90.5058 130.513 90.6755 131.345C90.8483 132.192 90.8356 132.971 90.6372 133.682C90.431 134.394 90.054 134.99 89.5061 135.469C88.9598 135.957 88.259 136.288 87.4037 136.462C86.5563 136.635 85.7905 136.607 85.1064 136.379C84.4223 136.151 83.8507 135.752 83.3915 135.184C82.9245 134.617 82.6045 133.91 82.4317 133.063C82.262 132.231 82.2795 131.455 82.4841 130.735C82.6824 130.024 83.0539 129.421 83.5986 128.926C84.1371 128.44 84.8379 128.109 85.701 127.933ZM85.9992 129.515C85.4342 129.631 85.0016 129.854 84.7013 130.185C84.401 130.516 84.2139 130.901 84.1402 131.341C84.0587 131.783 84.0635 132.227 84.1547 132.674C84.2219 133.004 84.3354 133.32 84.4952 133.623C84.6471 133.927 84.8437 134.189 85.0848 134.41C85.3259 134.63 85.6147 134.784 85.9512 134.87C86.2892 134.965 86.674 134.968 87.1056 134.88C87.6627 134.767 88.0914 134.544 88.3917 134.213C88.6936 133.89 88.8893 133.507 88.9787 133.064C89.0603 132.622 89.0538 132.17 88.9594 131.707C88.865 131.244 88.6938 130.825 88.4458 130.451C88.1899 130.078 87.859 129.798 87.4531 129.611C87.0409 129.434 86.5563 129.402 85.9992 129.515Z" fill="#1E1E1E"/>
<path d="M77.4427 128.965C78.3707 128.923 79.0974 129.127 79.6228 129.576C80.1406 130.033 80.4212 130.742 80.4647 131.702L80.625 135.242L78.945 135.318L78.79 131.898C78.777 131.61 78.7254 131.356 78.6353 131.136C78.5375 130.924 78.3977 130.758 78.2159 130.638C78.0261 130.518 77.7872 130.465 77.4992 130.478C77.1871 130.492 76.9502 130.571 76.7884 130.714C76.6265 130.858 76.5187 131.043 76.4648 131.27C76.4113 131.505 76.3904 131.75 76.402 132.006L76.5569 135.426L74.8888 135.502L74.7285 131.962C74.6832 130.962 74.9022 130.222 75.3856 129.744C75.861 129.265 76.5466 129.006 77.4427 128.965Z" fill="#1E1E1E"/>
<path d="M72.9205 129.091L72.4994 135.408L70.9891 135.307L70.9316 134.545C70.7558 134.774 70.564 134.942 70.3563 135.048C70.148 135.163 69.9346 135.233 69.7162 135.258C69.4973 135.292 69.2759 135.301 69.0522 135.286C68.9483 135.279 68.8527 135.269 68.7653 135.255C68.6774 135.249 68.6135 135.245 68.5736 135.242L68.6814 133.624L69.077 133.651C69.4525 133.676 69.7844 133.634 70.0726 133.524C70.3608 133.415 70.5899 133.23 70.7598 132.968C70.9218 132.706 71.0168 132.363 71.0451 131.94L71.2424 128.979L72.9205 129.091Z" fill="#1E1E1E"/>
<path d="M62.2948 127.621L63.1484 136.633L61.3351 136.16L60.8122 128.737L56.7784 134.972L54.9767 134.503L60.1095 127.051L62.2948 127.621Z" fill="#1E1E1E"/>
<path d="M56.5799 125.894L54.3286 131.811L52.7567 131.213L55.0081 125.296L56.5799 125.894ZM53.3162 132.107C53.6081 132.218 53.8112 132.394 53.9253 132.634C54.0366 132.882 54.0395 133.145 53.9342 133.422C53.8231 133.714 53.6398 133.914 53.3843 134.022C53.1289 134.131 52.8589 134.131 52.5745 134.023C52.3125 133.923 52.1221 133.748 52.0034 133.497C51.8743 133.251 51.8653 132.981 51.9763 132.69C52.0846 132.405 52.2664 132.209 52.5219 132.1C52.767 131.996 53.0318 131.999 53.3162 132.107Z" fill="#1E1E1E"/>
<path d="M51.3744 123.583C51.9476 123.869 52.3597 124.236 52.6107 124.683C52.851 125.134 52.9552 125.625 52.9234 126.155C52.8879 126.692 52.7361 127.229 52.4679 127.767C52.1853 128.333 51.8346 128.784 51.4159 129.121C50.9935 129.466 50.5227 129.665 50.0034 129.719C49.4841 129.773 48.9307 129.653 48.3431 129.36C48.1425 129.26 47.9579 129.136 47.7895 128.99C47.6103 128.847 47.4616 128.687 47.3433 128.512C47.2142 128.34 47.1246 128.152 47.0743 127.948L45.8404 130.42L44.3357 129.669L48.1338 122.059L49.5956 122.789L49.3006 123.434C49.5118 123.333 49.7374 123.276 49.9774 123.261C50.2066 123.25 50.4376 123.272 50.6704 123.325C50.9033 123.379 51.1379 123.465 51.3744 123.583ZM50.3975 124.787C50.075 124.626 49.7759 124.57 49.5002 124.621C49.2173 124.668 48.9667 124.784 48.7483 124.971C48.53 125.157 48.3529 125.386 48.217 125.659C48.0775 125.938 48.0007 126.217 47.9865 126.497C47.9617 126.78 48.0192 127.041 48.159 127.281C48.2881 127.524 48.5175 127.728 48.8471 127.893C49.1767 128.057 49.4794 128.115 49.7551 128.064C50.0308 128.014 50.2725 127.888 50.4801 127.688C50.6769 127.491 50.8433 127.256 50.9792 126.984C51.0793 126.783 51.1544 126.579 51.2044 126.371C51.2437 126.167 51.2453 125.966 51.2094 125.769C51.1734 125.572 51.0909 125.388 50.9618 125.216C50.8292 125.051 50.6411 124.908 50.3975 124.787Z" fill="#1E1E1E"/>
<path d="M44.5798 119.613C45.128 119.989 45.5189 120.417 45.7525 120.898C45.9861 121.378 46.0694 121.887 46.0024 122.424C45.9309 122.967 45.7117 123.506 45.3448 124.041C44.9734 124.583 44.5439 124.983 44.0563 125.24C43.5641 125.505 43.0473 125.622 42.5057 125.59C41.9575 125.554 41.4192 125.355 40.8908 124.992C40.4945 124.721 40.1931 124.417 39.9865 124.081C39.7732 123.741 39.6458 123.381 39.6041 123.003C39.5558 122.62 39.5908 122.237 39.7091 121.852C39.8163 121.469 39.9978 121.098 40.2535 120.739C40.3169 120.647 40.3813 120.56 40.4468 120.478C40.5123 120.397 40.5844 120.32 40.6631 120.248L44.2395 122.701C44.3556 122.489 44.424 122.269 44.4447 122.04C44.4655 121.812 44.4273 121.591 44.3301 121.379C44.2218 121.169 44.0421 120.978 43.7912 120.805C43.626 120.692 43.4628 120.605 43.3015 120.543C43.1356 120.487 42.976 120.465 42.8225 120.476C42.6691 120.488 42.5364 120.532 42.4243 120.611L41.0571 119.673C41.4102 119.343 41.7916 119.133 42.2015 119.045C42.6048 118.953 43.0123 118.96 43.4241 119.068C43.8313 119.182 44.2165 119.364 44.5798 119.613ZM43.544 123.651L41.2753 122.095C41.1596 122.278 41.0926 122.475 41.0743 122.686C41.0449 122.899 41.081 123.108 41.1827 123.314C41.2733 123.521 41.4441 123.711 41.695 123.883C41.946 124.056 42.1913 124.151 42.431 124.17C42.664 124.184 42.8778 124.141 43.0724 124.041C43.2558 123.944 43.413 123.814 43.544 123.651Z" fill="#1E1E1E"/>
<path d="M38.8637 115.086C39.3379 115.516 39.6668 115.988 39.8502 116.501C40.0282 117.019 40.0535 117.545 39.9261 118.079C39.7933 118.618 39.5035 119.134 39.0566 119.626C38.599 120.13 38.1081 120.474 37.584 120.658C37.0487 120.842 36.5143 120.871 35.9809 120.743C35.4475 120.616 34.9496 120.342 34.4872 119.922C34.0129 119.492 33.6924 119.017 33.5257 118.497C33.359 117.978 33.342 117.449 33.4748 116.91C33.6076 116.37 33.9028 115.849 34.3605 115.345C34.8074 114.853 35.2928 114.515 35.8169 114.331C36.3297 114.147 36.8471 114.12 37.3691 114.248C37.8853 114.37 38.3835 114.649 38.8637 115.086ZM37.8477 116.24C37.575 115.992 37.3018 115.852 37.0281 115.82C36.7544 115.788 36.4959 115.834 36.2525 115.96C35.9977 116.085 35.7734 116.255 35.5796 116.468C35.3858 116.682 35.2385 116.921 35.1379 117.187C35.0314 117.447 35.0046 117.715 35.0575 117.99C35.0992 118.266 35.2593 118.53 35.5379 118.783C35.8047 119.026 36.0803 119.157 36.3648 119.177C36.6438 119.203 36.9107 119.154 37.1655 119.028C37.4143 118.897 37.6356 118.725 37.8294 118.511C38.0286 118.292 38.1788 118.055 38.28 117.801C38.3752 117.541 38.3936 117.277 38.3353 117.007C38.277 116.738 38.1145 116.482 37.8477 116.24Z" fill="#1E1E1E"/>
<path d="M28.5519 111.026L28.5621 112.443L27.3706 112.315L27.8834 113.401L26.5471 113.861L26.2963 112.683L25.4303 113.511L24.574 112.366L25.6127 111.769L24.5611 111.206L25.3722 110.044L26.2697 110.843L26.4898 109.673L27.8467 110.083L27.3553 111.171L28.5519 111.026Z" fill="#1E1E1E"/>
<path d="M27.022 99.9716L20.0547 105.273L19.2919 103.522L24.7652 99.5133L18.0973 100.78L17.1906 98.6986L22.6687 94.7006L16.02 96.0114L15.2956 94.3485L23.9133 92.8351L24.8631 95.0157L19.555 98.9528L26.0433 97.7249L27.022 99.9716Z" fill="#1E1E1E"/>
<path d="M22.9331 88.6643C23.0007 88.9445 23.0314 89.2255 23.0252 89.5071C23.0093 89.7828 22.9479 90.0406 22.8411 90.2806C22.7342 90.5205 22.5781 90.7271 22.3727 90.9002C22.1673 91.0733 21.9089 91.1975 21.5975 91.2726C21.1771 91.374 20.8217 91.3691 20.5313 91.2579C20.233 91.1487 19.983 90.9659 19.7812 90.7098C19.5793 90.4537 19.41 90.1444 19.2731 89.782C19.1344 89.4118 19.0162 89.0243 18.9185 88.6195L18.7044 87.732C18.4787 87.7865 18.2905 87.8772 18.1399 88.0041C17.9796 88.1252 17.8725 88.2787 17.8185 88.4647C17.7567 88.6526 17.7568 88.875 17.8188 89.1319C17.8582 89.2954 17.9201 89.4494 18.0044 89.5938C18.079 89.7324 18.1674 89.8428 18.2697 89.9253C18.3719 90.0077 18.4891 90.0494 18.6212 90.0505L19.0212 91.7087C18.6674 91.7447 18.3492 91.7061 18.0665 91.5931C17.7761 91.4819 17.522 91.3166 17.3043 91.0973C17.0867 90.8779 16.9062 90.6249 16.7629 90.3382C16.6099 90.0456 16.4939 89.7358 16.4151 89.4088C16.1991 88.5135 16.2964 87.7898 16.7069 87.2377C17.1096 86.6874 17.7781 86.2996 18.7123 86.0742L22.0287 85.2741L22.3837 86.7455L21.5952 86.9604C21.9147 87.0893 22.1667 87.2633 22.3514 87.4824C22.5342 87.6937 22.6684 87.9085 22.754 88.1267C22.8396 88.345 22.8993 88.5242 22.9331 88.6643ZM21.5467 88.6033C21.481 88.3308 21.3664 88.0949 21.2029 87.8954C21.0395 87.6959 20.8484 87.5525 20.6296 87.4653C20.4108 87.378 20.1847 87.3625 19.9511 87.4189L19.7993 87.4555L20.0698 88.5766C20.1092 88.74 20.1555 88.8978 20.2086 89.0497C20.2599 89.1939 20.3239 89.3226 20.4006 89.4359C20.4677 89.5433 20.5564 89.6207 20.6668 89.6682C20.7771 89.7158 20.9101 89.7208 21.0658 89.6832C21.2215 89.6456 21.3445 89.5748 21.4347 89.4706C21.5152 89.3606 21.5658 89.2289 21.5865 89.0756C21.5994 88.9242 21.5862 88.7668 21.5467 88.6033Z" fill="#1E1E1E"/>
<path d="M21.455 81.0404C21.5261 81.5641 21.5225 82.0132 21.444 82.3875C21.3645 82.7539 21.1863 83.0489 20.9096 83.2724C20.6238 83.489 20.2151 83.6334 19.6834 83.7056L16.9933 84.0711L17.1194 84.9995L15.6315 85.2017L15.5054 84.2732L13.827 84.5012L13.6006 82.8348L15.279 82.6068L15.093 81.2379L16.5809 81.0358L16.7669 82.4046L19.219 82.0715C19.4808 82.0359 19.6807 81.9603 19.8185 81.8446C19.9564 81.7289 20.0026 81.5044 19.9574 81.1711L19.8862 80.6473L21.3741 80.4452L21.455 81.0404Z" fill="#1E1E1E"/>
<path d="M21.2945 77.0583C21.3156 77.7066 21.2016 78.2672 20.9526 78.74C20.7032 79.2049 20.3424 79.5651 19.8699 79.8209C19.3895 80.0769 18.8211 80.2155 18.1647 80.2368C17.5004 80.2584 16.92 80.1531 16.4237 79.9208C15.9194 79.6888 15.5236 79.3451 15.2364 78.8897C14.9489 78.4263 14.7944 77.8624 14.7728 77.1981C14.7561 76.6858 14.8334 76.2266 15.0044 75.8204C15.1755 75.4142 15.4293 75.0855 15.7656 74.8342C16.1018 74.5748 16.5213 74.417 17.0243 74.3606L17.0777 76.0054C16.7999 76.0866 16.6004 76.2333 16.4791 76.4456C16.3575 76.6498 16.3013 76.892 16.3104 77.1722C16.3221 77.5324 16.4195 77.8177 16.6026 78.028C16.7854 78.2304 17.0145 78.3752 17.2898 78.4624C17.5648 78.5416 17.8383 78.5768 18.1105 78.568C18.4066 78.5583 18.6852 78.5012 18.9463 78.3966C19.1993 78.2922 19.4064 78.1332 19.5678 77.9197C19.7208 77.6984 19.7918 77.4156 19.7806 77.0714C19.7712 76.7833 19.699 76.5332 19.5639 76.3213C19.4208 76.1096 19.2081 75.9763 18.9259 75.9213L18.8713 74.2405C19.3929 74.2636 19.8302 74.4056 20.1832 74.6666C20.5362 74.9275 20.8077 75.2673 20.9975 75.6858C21.1792 76.0965 21.2782 76.554 21.2945 77.0583Z" fill="#1E1E1E"/>
<path d="M21.1718 72.6926L12.7109 71.8281L12.8819 70.1551L15.7739 70.4505C15.5775 70.2453 15.4309 70.0251 15.3342 69.7898C15.2383 69.5465 15.1783 69.3069 15.1541 69.071C15.1227 68.8263 15.1172 68.6044 15.1376 68.4052C15.1978 67.8156 15.3765 67.367 15.6736 67.0592C15.9707 66.7515 16.3496 66.5487 16.8104 66.4509C17.2712 66.3531 17.7685 66.3314 18.3023 66.3859L21.7799 66.7412L21.6089 68.4143L18.3704 68.0834C18.1792 68.0639 17.9859 68.0643 17.7906 68.0846C17.5962 68.0969 17.4148 68.1387 17.2465 68.2101C17.0703 68.2806 16.9262 68.3907 16.8143 68.5403C16.6944 68.689 16.6211 68.8949 16.5942 69.1578C16.569 69.4048 16.5992 69.6212 16.6849 69.807C16.7705 69.9929 16.8953 70.1505 17.0592 70.28C17.2159 70.4006 17.3954 70.4954 17.5977 70.5644C17.7999 70.6334 18.0046 70.6784 18.2118 70.6996L21.3428 71.0195L21.1718 72.6926Z" fill="#1E1E1E"/>
<path d="M24.0799 58.1973C23.8016 59.0247 23.387 59.6795 22.8362 60.1617C22.2879 60.6364 21.6527 60.9297 20.9306 61.0417C20.2035 61.1436 19.4377 61.0592 18.6331 60.7886C17.8133 60.5128 17.1458 60.1109 16.6306 59.5827C16.1179 59.047 15.7917 58.4219 15.6518 57.7073C15.5043 56.9902 15.5697 56.218 15.848 55.3906C16.1237 54.5708 16.5319 53.9223 17.0726 53.4452C17.6134 52.968 18.2447 52.6734 18.9668 52.5614C19.6914 52.4418 20.4636 52.5198 21.2834 52.7956C22.088 53.0662 22.7504 53.4706 23.2707 54.0089C23.7859 54.5371 24.121 55.161 24.2761 55.8806C24.4261 56.5901 24.3607 57.3624 24.0799 58.1973ZM22.5618 57.6614C22.7456 57.1149 22.7698 56.6287 22.6341 56.2029C22.4985 55.7771 22.2589 55.4219 21.9153 55.1373C21.5742 54.8451 21.1873 54.6263 20.7546 54.4808C20.4358 54.3736 20.1055 54.3131 19.7636 54.2996C19.4243 54.2784 19.0988 54.3168 18.7871 54.4147C18.4753 54.5126 18.1975 54.6853 17.9537 54.9329C17.7024 55.1778 17.5065 55.5091 17.366 55.9265C17.1848 56.4655 17.1619 56.9478 17.2975 57.3737C17.4256 57.7969 17.6588 58.1585 17.9974 58.4582C18.3385 58.7504 18.733 58.9718 19.1808 59.1224C19.6286 59.273 20.0767 59.335 20.525 59.3084C20.9759 59.2741 21.3841 59.1283 21.7494 58.871C22.1098 58.6035 22.3806 58.2003 22.5618 57.6614Z" fill="#1E1E1E"/>
<path d="M27.3462 50.5101C26.9156 51.3333 26.374 51.8588 25.7214 52.0868C25.0655 52.304 24.3118 52.1899 23.4603 51.7444L20.3203 50.1016L21.0999 48.6114L24.1334 50.1985C24.3889 50.3322 24.6345 50.4155 24.8703 50.4485C25.1028 50.4707 25.3166 50.4334 25.5118 50.3367C25.7107 50.2329 25.877 50.0533 26.0107 49.7978C26.1554 49.5211 26.2065 49.2766 26.1638 49.0645C26.1212 48.8524 26.0153 48.666 25.8464 48.5052C25.6703 48.3408 25.4687 48.1992 25.2416 48.0804L22.2081 46.4933L22.9822 45.0138L26.1221 46.6566C27.0091 47.1207 27.5379 47.682 27.7085 48.3407C27.8828 48.9922 27.762 49.7154 27.3462 50.5101Z" fill="#1E1E1E"/>
<path d="M29.4616 46.6261L24.2146 43.0839L25.0615 41.8294L25.7492 42.1633C25.6397 41.8961 25.5912 41.6459 25.6037 41.4128C25.6095 41.1752 25.6563 40.9555 25.7441 40.7539C25.8252 40.5478 25.9286 40.3518 26.054 40.166C26.1123 40.0797 26.1694 40.0023 26.2253 39.9338C26.2746 39.8607 26.3104 39.8076 26.3328 39.7745L27.6769 40.6818L27.4551 41.0104C27.2445 41.3224 27.1139 41.6303 27.0633 41.9344C27.0126 42.2384 27.0576 42.5296 27.1981 42.8081C27.3432 43.0799 27.5916 43.3345 27.9433 43.572L30.4025 45.2322L29.4616 46.6261Z" fill="#1E1E1E"/>
<path d="M36.0954 38.1728L27.875 34.3828L29.1949 33.0525L35.8758 36.3304L32.5114 29.7097L33.8228 28.3879L37.686 36.5696L36.0954 38.1728Z" fill="#1E1E1E"/>
<path d="M40.4559 34.0924L36.4644 29.1786L37.7698 28.1182L41.7613 33.0321L40.4559 34.0924ZM36.7157 28.1542C36.4733 28.3512 36.2194 28.4387 35.9541 28.4169C35.6837 28.3889 35.4551 28.2599 35.2683 28.0299C35.0714 27.7875 34.99 27.5286 35.0243 27.2532C35.0585 26.9778 35.1937 26.7441 35.4299 26.5522C35.6475 26.3755 35.8945 26.2986 36.1711 26.3216C36.4489 26.3333 36.6862 26.4603 36.8831 26.7028C37.075 26.939 37.1538 27.1948 37.1196 27.4702C37.0866 27.7344 36.9519 27.9624 36.7157 28.1542Z" fill="#1E1E1E"/>
<path d="M45.0619 30.7468C44.5273 31.0999 44.0035 31.2731 43.4904 31.2664C42.9796 31.2486 42.5027 31.0932 42.0598 30.8003C41.6124 30.5008 41.2233 30.1004 40.8923 29.5991C40.5436 29.0712 40.3283 28.5416 40.2462 28.0104C40.1597 27.4725 40.223 26.9653 40.4361 26.4886C40.6492 26.012 41.0297 25.5928 41.5777 25.2309C41.7648 25.1073 41.964 25.0094 42.1754 24.937C42.389 24.8535 42.6013 24.8045 42.8124 24.7898C43.0257 24.7641 43.2333 24.7806 43.4352 24.8392L41.9127 22.5337L43.316 21.6069L48.0028 28.704L46.6395 29.6043L46.2289 29.0261C46.2101 29.2592 46.1469 29.4833 46.0394 29.6983C45.9341 29.9021 45.8 30.0915 45.6371 30.2662C45.4742 30.441 45.2825 30.6012 45.0619 30.7468ZM44.5085 29.2984C44.8092 29.0998 45.0068 28.8686 45.1013 28.6047C45.2024 28.3364 45.2269 28.061 45.1748 27.7787C45.1228 27.4964 45.0129 27.2283 44.8452 26.9743C44.6731 26.7137 44.4696 26.5074 44.2348 26.3553C44.0023 26.1921 43.7473 26.1111 43.4696 26.1121C43.1942 26.102 42.9028 26.1985 42.5954 26.4015C42.288 26.6045 42.0871 26.8379 41.9927 27.1018C41.8982 27.3657 41.8859 27.6378 41.9558 27.9179C42.0279 28.187 42.1478 28.4485 42.3155 28.7025C42.4391 28.8896 42.5783 29.0568 42.7331 29.204C42.8902 29.3402 43.063 29.442 43.2515 29.5095C43.44 29.577 43.641 29.5978 43.8543 29.5721C44.0632 29.5397 44.2813 29.4485 44.5085 29.2984Z" fill="#1E1E1E"/>
<path d="M51.9048 26.8488C51.3049 27.1351 50.7384 27.259 50.2054 27.2206C49.6724 27.1822 49.1904 26.9996 48.7593 26.6729C48.3249 26.3389 47.9679 25.8792 47.6885 25.2938C47.4057 24.7012 47.2747 24.1292 47.2955 23.578C47.3129 23.0195 47.4709 22.5137 47.7693 22.0607C48.075 21.6042 48.517 21.238 49.0952 20.962C49.5288 20.7551 49.9428 20.6462 50.337 20.6356C50.7384 20.6214 51.1133 20.691 51.4615 20.8443C51.817 20.9941 52.1317 21.2165 52.4057 21.5117C52.6834 21.7962 52.9136 22.139 53.0961 22.5399C53.1443 22.6411 53.1873 22.7404 53.2249 22.8378C53.2625 22.9352 53.2929 23.0361 53.3161 23.1404L49.4024 25.0083C49.5276 25.2147 49.6839 25.3842 49.8713 25.5166C50.0587 25.6489 50.2687 25.7262 50.5011 25.7484C50.7373 25.7599 50.9927 25.7001 51.2674 25.569C51.448 25.4828 51.6056 25.3854 51.7402 25.2768C51.8713 25.161 51.9703 25.0339 52.0373 24.8954C52.1043 24.7569 52.1319 24.6195 52.1201 24.4832L53.6162 23.7691C53.7258 24.2404 53.716 24.6755 53.5869 25.0743C53.465 25.4697 53.2544 25.8186 52.9551 26.1212C52.6524 26.4165 52.3023 26.6591 51.9048 26.8488ZM48.9279 23.9303L51.4105 22.7454C51.3101 22.5537 51.1733 22.3972 51 22.2758C50.8305 22.1437 50.6313 22.0702 50.4023 22.0553C50.1771 22.0296 49.9271 22.0824 49.6525 22.2134C49.3779 22.3445 49.1725 22.5091 49.0363 22.7072C48.9073 22.9019 48.8373 23.1083 48.8261 23.3266C48.8187 23.5343 48.8526 23.7355 48.9279 23.9303Z" fill="#1E1E1E"/>
<path d="M58.6782 24.1773C58.0677 24.3715 57.4947 24.4193 56.9591 24.3207C56.4211 24.2145 55.9533 23.9725 55.5559 23.5947C55.156 23.2092 54.8553 22.6998 54.6538 22.0663C54.4475 21.4176 54.3962 20.8205 54.5 20.2748C54.609 19.7191 54.8524 19.2426 55.2302 18.8451C55.6081 18.4476 56.0946 18.1542 56.6899 17.9649C57.3004 17.7707 57.8721 17.7318 58.4049 17.848C58.9377 17.9643 59.404 18.2152 59.8039 18.6006C60.2038 18.9861 60.5069 19.5031 60.7133 20.1518C60.9147 20.7853 60.9635 21.3748 60.8598 21.9204C60.7612 22.456 60.5256 22.9175 60.153 23.3049C59.788 23.6899 59.2964 23.9807 58.6782 24.1773ZM58.1893 22.7193C58.5404 22.6076 58.7985 22.4415 58.9636 22.2209C59.1288 22.0003 59.2183 21.7534 59.2322 21.48C59.2513 21.1966 59.2172 20.9175 59.1298 20.6428C59.0425 20.3681 58.9091 20.1205 58.7298 19.9002C58.5581 19.6775 58.34 19.52 58.0753 19.4277C57.8158 19.3253 57.5068 19.3312 57.1481 19.4453C56.8047 19.5545 56.5528 19.727 56.3925 19.9629C56.2298 20.1911 56.1389 20.4469 56.1197 20.7303C56.1083 21.0113 56.1462 21.2892 56.2336 21.5639C56.3234 21.8463 56.4529 22.095 56.6222 22.3101C56.7991 22.5228 57.0186 22.6714 57.2808 22.7561C57.5431 22.8408 57.8459 22.8285 58.1893 22.7193Z" fill="#1E1E1E"/>
<path d="M67.3552 17.3054L66.1251 16.6009L66.836 15.6361L65.639 15.5324L65.9144 14.1462L67.0581 14.5221L66.7786 13.3572L68.1987 13.1933L68.1918 14.3913L69.208 13.7661L69.8038 15.0517L68.6618 15.4253L69.5619 16.2042L68.5247 17.1704L67.832 16.1983L67.3552 17.3054Z" fill="#1E1E1E"/>
</svg>
